
<svg xmlns="http://www.w3.org/2000/svg" version="1.1" viewBox="0.00 0.00 500.00 333.00">
<path fill="#D51313" d="
  M 117.16 83.89
  Q 116.51 84.16 115.79 84.08
  Q 114.93 84.00 115.51 83.36
  Q 116.16 82.65 117.19 83.21
  Q 117.88 83.58 117.16 83.89
  Z"
/>
<path fill="#D51313" d="
  M 115.92 84.90
  C 117.31 85.18 117.27 86.73 116.07 87.07
  Q 115.13 87.33 115.23 86.36
  L 115.33 85.33
  Q 115.39 84.79 115.92 84.90
  Z"
/>
<path fill="#D51313" d="
  M 122.68 86.00
  Q 123.83 86.08 124.54 86.90
  Q 125.01 87.45 124.37 87.78
  L 122.68 88.68
  Q 121.97 89.05 121.99 88.25
  L 122.02 86.60
  A 0.62 0.62 0.0 0 1 122.68 86.00
  Z"
/>
<path fill="#D51313" d="
  M 198.78 89.77
  Q 197.66 89.65 198.04 88.39
  A 0.48 0.47 -62.9 0 1 198.78 88.15
  Q 199.54 88.72 199.74 89.66
  Q 199.89 90.40 199.24 90.01
  L 198.92 89.82
  Q 198.85 89.78 198.78 89.77
  Z"
/>
<ellipse fill="#D51313" cx="0.00" cy="0.00" transform="translate(271.31,88.84) rotate(-13.9)" rx="1.44" ry="0.83"/>
<path fill="#D51313" d="
  M 117.83 93.76
  A 0.51 0.51 0.0 0 0 118.79 93.86
  L 118.96 93.48
  Q 119.20 92.96 118.81 92.54
  Q 117.23 90.87 119.09 89.41
  A 0.44 0.43 -11.8 0 1 119.78 89.86
  L 119.54 90.78
  Q 119.40 91.32 119.81 91.69
  L 123.57 95.05
  A 0.83 0.83 0.0 0 1 123.30 96.44
  Q 118.67 98.18 113.74 97.91
  A 0.82 0.82 0.0 0 1 113.17 96.54
  L 115.79 93.63
  Q 116.26 93.11 115.89 92.52
  C 115.33 91.64 114.84 89.32 116.23 89.21
  Q 116.76 89.17 116.89 89.69
  L 117.83 93.76
  Z"
/>
<path fill="#D51313" d="
  M 124.86 90.05
  A 0.57 0.56 48.7 0 1 125.48 90.10
  C 126.17 90.63 125.34 91.45 124.91 91.67
  Q 124.40 91.92 124.27 91.36
  Q 124.08 90.50 124.86 90.05
  Z"
/>
<path fill="#D51313" d="
  M 243.06 92.31
  Q 242.81 92.76 242.25 92.72
  A 0.45 0.44 19.9 0 1 241.92 92.02
  C 242.38 91.37 244.35 90.70 244.66 91.54
  Q 244.81 91.96 244.36 91.97
  Q 243.67 91.99 243.06 92.31
  Z"
/>
<path fill="#D51313" d="
  M 111.52 92.17
  Q 112.15 92.55 111.57 93.02
  Q 109.87 94.39 107.72 93.87
  Q 107.18 93.74 107.44 93.26
  Q 108.91 90.59 111.52 92.17
  Z"
/>
<path fill="#D51313" d="
  M 500.00 100.50
  L 500.00 106.31
  L 493.40 110.18
  A 0.47 0.47 0.0 0 0 493.65 111.05
  Q 497.48 110.95 500.00 114.06
  L 500.00 170.39
  Q 496.22 171.07 492.44 169.90
  Q 491.87 169.73 492.02 170.31
  C 492.42 171.95 497.33 172.07 498.79 171.99
  Q 499.26 171.96 499.57 172.32
  L 500.00 172.81
  L 500.00 187.31
  Q 499.67 187.60 499.75 188.09
  Q 499.84 188.68 499.25 188.75
  Q 498.70 188.82 498.28 188.52
  Q 497.84 188.22 497.31 188.26
  C 495.73 188.40 496.88 191.19 497.05 192.14
  Q 497.20 192.97 496.36 192.98
  L 493.76 193.01
  Q 493.61 193.01 493.51 193.12
  L 493.27 193.36
  Q 492.72 193.90 493.49 193.99
  C 495.50 194.21 498.42 193.76 500.00 196.06
  L 500.00 196.56
  Q 498.80 197.09 497.65 196.78
  Q 497.35 196.69 497.27 196.39
  Q 497.17 195.99 497.52 196.00
  Q 499.75 196.06 497.43 195.33
  Q 496.44 195.02 495.42 195.21
  Q 494.53 195.38 494.99 196.16
  L 495.57 197.14
  Q 495.87 197.64 495.34 197.86
  L 492.95 198.87
  Q 492.13 199.22 492.21 198.33
  Q 492.34 196.89 493.57 196.10
  Q 494.20 195.70 493.57 195.30
  C 490.29 193.21 488.93 195.98 485.98 195.62
  Q 485.47 195.56 485.02 195.79
  Q 482.29 197.11 479.45 195.99
  Q 478.51 195.62 478.49 196.64
  Q 478.47 197.87 479.30 198.70
  Q 479.69 199.09 480.24 199.04
  C 484.30 198.72 487.95 199.98 491.63 199.99
  C 492.38 199.99 497.28 199.79 497.41 200.39
  Q 497.50 200.82 497.09 200.96
  Q 496.42 201.19 496.18 201.93
  Q 495.95 202.65 496.70 202.75
  L 499.09 203.08
  Q 499.60 203.15 499.81 203.63
  L 500.00 204.06
  L 500.00 221.31
  Q 498.26 222.47 496.09 221.91
  Q 495.65 221.80 495.42 222.18
  L 495.28 222.42
  Q 494.87 223.10 495.67 223.05
  Q 498.30 222.89 500.00 224.81
  L 500.00 229.65
  Q 486.46 230.14 472.94 229.06
  Q 472.32 229.01 471.88 229.45
  Q 470.40 230.90 472.02 232.73
  Q 472.96 233.79 471.71 233.12
  L 470.99 232.73
  Q 470.54 232.50 470.46 232.00
  Q 469.92 228.71 466.01 228.99
  Q 454.06 229.85 439.06 228.44
  Q 436.98 228.25 433.04 229.38
  Q 432.57 229.51 432.29 229.10
  C 431.26 227.57 429.96 227.99 428.34 227.99
  Q 417.88 228.03 407.41 228.51
  C 401.44 228.79 400.05 226.18 394.94 231.22
  Q 394.55 231.60 394.01 231.66
  L 390.56 232.04
  Q 389.70 232.14 389.98 232.96
  L 390.41 234.20
  Q 390.56 234.64 390.13 234.80
  Q 389.68 234.99 389.30 235.31
  Q 387.90 236.48 389.75 236.01
  Q 390.28 235.88 390.70 236.28
  Q 391.17 236.74 390.52 236.70
  C 387.04 236.48 383.42 237.08 380.27 236.97
  Q 360.34 236.29 340.50 234.26
  Q 337.94 233.99 334.06 234.52
  C 330.73 234.98 328.22 233.71 324.65 235.16
  A 1.08 1.08 0.0 0 1 323.21 234.48
  Q 322.62 232.64 320.79 232.97
  Q 320.16 233.08 320.30 233.71
  C 320.80 235.98 318.33 235.65 316.94 235.28
  Q 316.39 235.13 315.90 235.43
  Q 313.08 237.15 309.96 236.25
  Q 309.31 236.06 309.13 236.72
  L 308.93 237.41
  Q 308.72 238.15 308.10 237.70
  Q 306.11 236.25 304.78 238.16
  Q 304.52 238.54 304.08 238.64
  L 297.96 240.06
  A 0.61 0.61 0.0 0 1 297.31 239.13
  Q 298.10 237.93 297.52 236.61
  Q 297.27 236.05 297.77 235.72
  C 301.42 233.24 307.39 234.46 311.79 234.35
  A 0.95 0.94 -4.4 0 0 312.71 233.29
  C 312.44 231.04 306.42 232.99 304.97 232.97
  Q 293.57 232.84 288.50 233.27
  Q 265.60 235.22 242.61 235.43
  C 234.79 235.50 224.80 234.26 218.03 231.13
  C 213.45 229.01 210.15 228.50 205.54 227.89
  C 200.39 227.22 195.39 225.85 190.04 225.60
  Q 189.57 225.58 189.20 225.88
  L 185.96 228.61
  Q 185.31 229.16 185.53 228.33
  L 185.84 227.11
  Q 185.92 226.84 186.17 226.73
  Q 187.59 226.16 187.67 224.52
  A 0.61 0.60 -15.8 0 0 186.72 223.99
  Q 185.80 224.65 184.71 224.50
  Q 184.19 224.42 183.69 224.60
  L 176.86 226.99
  Q 176.42 227.15 175.99 226.94
  C 174.82 226.38 171.52 225.00 171.29 226.52
  Q 171.19 227.17 171.85 227.16
  L 173.29 227.15
  Q 174.30 227.14 173.44 227.67
  Q 172.67 228.14 171.75 227.99
  Q 171.75 227.99 171.44 228.19
  Q 171.31 228.27 171.27 228.40
  Q 171.13 228.83 171.58 228.92
  Q 173.97 229.38 175.96 228.11
  Q 176.44 227.81 176.69 228.32
  C 177.69 230.31 171.43 229.98 170.70 229.76
  Q 170.32 229.65 170.21 229.27
  L 169.99 228.57
  Q 169.70 227.65 169.23 228.49
  C 167.08 232.33 157.16 231.01 152.96 231.29
  A 0.76 0.76 0.0 0 0 152.25 232.05
  L 152.25 232.70
  Q 152.25 233.33 152.81 233.06
  C 155.40 231.79 160.61 232.24 165.24 231.99
  C 166.11 231.94 166.68 232.28 166.50 233.23
  Q 166.35 234.00 167.12 233.99
  Q 167.47 233.99 167.67 234.29
  Q 168.10 234.91 167.36 234.82
  C 166.89 234.76 154.36 232.99 153.29 234.38
  Q 152.78 235.05 153.62 235.09
  L 157.98 235.28
  Q 159.34 235.34 158.03 235.73
  Q 155.19 236.56 152.25 236.52
  Q 150.79 236.50 151.42 235.18
  L 151.79 234.42
  Q 152.12 233.73 151.40 234.00
  L 149.22 234.83
  Q 147.83 235.35 148.00 233.88
  Q 148.02 233.71 148.08 233.55
  Q 148.24 233.12 148.70 233.12
  L 150.28 233.13
  A 0.50 0.50 0.0 0 0 150.58 232.24
  Q 148.71 230.79 146.85 232.21
  Q 146.46 232.51 145.98 232.49
  Q 144.36 232.43 143.11 233.44
  Q 142.65 233.80 142.12 233.55
  Q 139.79 232.43 137.41 233.38
  A 0.41 0.41 0.0 0 0 137.61 234.16
  Q 141.37 233.71 143.03 237.34
  A 0.33 0.33 0.0 0 1 142.68 237.81
  Q 139.53 237.34 139.48 240.40
  A 0.52 0.52 0.0 0 1 138.57 240.74
  L 136.25 238.17
  Q 135.93 237.82 136.31 237.54
  Q 137.97 236.30 139.32 237.90
  Q 139.98 238.67 139.98 237.66
  L 139.98 236.62
  Q 139.98 235.73 139.12 235.97
  Q 137.26 236.48 137.02 234.70
  Q 136.95 234.20 136.47 234.35
  Q 119.37 239.79 101.58 242.15
  Q 101.38 242.18 101.32 241.99
  Q 101.28 241.85 101.24 241.71
  Q 101.04 241.09 101.70 241.08
  Q 103.80 241.04 104.25 239.16
  Q 104.37 238.66 104.78 238.35
  L 107.28 236.53
  Q 107.61 236.29 108.01 236.23
  Q 108.61 236.15 108.76 235.57
  Q 108.89 235.03 108.33 234.99
  Q 105.59 234.84 103.40 236.44
  Q 102.95 236.77 102.39 236.77
  C 100.63 236.78 99.49 236.15 97.76 236.39
  Q 89.53 237.51 81.22 238.30
  C 76.93 238.70 72.69 236.64 68.33 236.29
  Q 64.65 235.99 57.78 237.16
  C 55.90 237.48 43.02 239.74 42.22 238.90
  Q 41.81 238.47 42.37 238.26
  Q 44.03 237.62 43.15 235.78
  Q 42.78 235.00 43.64 235.08
  Q 45.52 235.26 46.69 233.88
  A 0.65 0.65 0.0 0 0 46.08 232.82
  L 37.70 234.21
  Q 37.12 234.30 36.76 233.84
  L 35.29 232.02
  Q 34.85 231.48 34.19 231.71
  L 31.00 232.85
  Q 29.94 233.22 30.48 232.24
  Q 30.74 231.75 30.65 231.30
  Q 30.49 230.53 29.85 230.98
  Q 28.10 232.21 26.96 230.53
  Q 26.57 229.95 25.91 230.18
  L 24.61 230.65
  Q 23.95 230.89 24.29 230.27
  C 25.64 227.80 29.09 227.80 31.63 227.13
  A 0.52 0.52 0.0 0 0 31.54 226.10
  C 26.07 225.65 20.20 227.52 15.97 228.15
  Q 10.76 228.93 5.60 230.25
  Q 4.62 230.50 5.43 231.11
  L 6.72 232.09
  Q 7.20 232.46 6.67 232.76
  C 4.40 234.03 4.21 230.49 1.56 231.02
  Q 1.08 231.12 0.67 230.85
  Q 0.23 230.56 0.00 230.19
  L 0.00 227.69
  Q 0.63 223.06 0.00 218.44
  L 0.00 207.19
  L 0.43 203.81
  Q 0.48 203.39 0.47 202.95
  Q 0.46 201.94 0.00 201.19
  L 0.00 200.44
  Q 1.01 198.57 3.00 199.49
  Q 3.48 199.72 3.93 199.45
  Q 5.52 198.49 5.76 196.53
  A 0.45 0.44 1.5 0 0 5.28 196.03
  L 0.00 196.44
  L 0.00 195.69
  Q 0.85 195.33 1.67 194.77
  Q 2.46 194.23 1.52 194.04
  L 0.94 193.93
  Q 0.38 193.82 0.30 193.25
  Q 0.00 191.06 0.98 189.15
  Q 1.21 188.69 0.89 188.29
  L 0.00 187.19
  L 0.00 185.69
  L 0.20 180.18
  A 1.38 1.38 0.0 0 1 1.72 178.86
  C 12.24 179.97 22.70 178.38 33.24 177.37
  Q 33.84 177.31 34.20 176.89
  A 0.56 0.56 0.0 0 0 33.73 175.97
  L 1.14 178.12
  Q 0.55 178.16 0.34 177.61
  L 0.00 176.69
  L 0.00 162.69
  Q 0.94 162.36 1.90 162.69
  Q 2.44 162.88 2.68 162.36
  C 2.90 161.87 0.33 160.36 0.00 158.94
  L 0.00 158.19
  Q 1.36 155.98 4.09 156.00
  Q 4.65 156.01 4.86 155.49
  L 5.30 154.42
  Q 5.71 153.41 5.92 154.48
  Q 6.05 155.15 6.00 155.81
  Q 5.95 156.35 6.35 156.73
  Q 6.79 157.15 7.47 157.00
  Q 8.10 156.87 7.77 156.31
  L 7.22 155.38
  Q 6.79 154.64 7.57 154.30
  Q 9.32 153.52 10.85 154.54
  Q 11.29 154.83 11.76 154.58
  Q 15.99 152.33 20.81 153.09
  A 0.52 0.52 0.0 0 0 21.38 152.39
  L 19.63 147.63
  A 2.00 1.99 -19.0 0 0 17.14 146.42
  L 13.98 147.44
  Q 13.49 147.60 13.53 148.12
  Q 13.69 150.31 11.45 150.69
  Q 10.94 150.78 10.99 150.26
  C 11.12 149.04 10.17 146.52 8.68 148.26
  Q 8.30 148.71 8.59 149.21
  L 8.77 149.50
  Q 9.17 150.18 8.40 149.99
  Q 6.12 149.43 4.84 151.12
  Q 4.57 151.48 4.15 151.65
  L 1.04 152.90
  Q 0.63 153.07 0.37 152.71
  L 0.00 152.19
  L 0.00 117.44
  L 0.48 117.19
  Q 0.83 117.01 1.20 117.12
  Q 3.19 117.68 5.20 117.89
  C 8.00 118.19 10.90 116.83 14.09 117.01
  Q 15.24 117.08 14.28 117.72
  L 13.51 118.24
  Q 13.16 118.47 13.39 118.81
  C 13.60 119.12 17.01 119.01 18.53 118.98
  Q 18.75 118.97 18.75 118.75
  Q 18.75 118.60 18.75 118.45
  Q 18.77 117.99 18.31 117.93
  Q 16.10 117.66 16.70 115.76
  A 0.75 0.75 0.0 0 0 16.20 114.82
  Q 9.02 112.67 1.53 113.00
  Q 1.12 113.02 0.76 112.82
  Q 0.22 112.53 0.00 112.19
  L 0.00 98.38
  Q 10.73 97.78 21.47 97.69
  C 22.64 97.67 24.18 96.72 25.23 98.10
  Q 25.54 98.50 26.02 98.35
  Q 30.19 97.06 34.35 98.10
  C 39.21 99.31 41.87 98.39 47.18 97.69
  Q 49.05 97.45 56.32 97.55
  Q 56.90 97.56 57.10 97.02
  Q 57.33 96.41 57.87 96.06
  Q 58.88 95.43 58.52 96.56
  L 58.34 97.13
  Q 58.11 97.84 58.85 97.94
  Q 61.88 98.32 64.74 97.27
  Q 65.32 97.05 65.67 97.57
  Q 67.26 99.94 70.28 99.99
  Q 71.67 100.01 70.64 99.08
  L 69.31 97.89
  A 0.61 0.61 0.0 0 1 69.82 96.83
  L 75.14 97.71
  Q 75.60 97.79 75.91 97.43
  Q 77.76 95.28 80.47 96.54
  Q 80.94 96.76 81.34 96.44
  Q 83.01 95.11 84.85 95.90
  Q 85.35 96.12 85.88 96.00
  L 89.65 95.18
  Q 90.21 95.06 90.72 95.34
  Q 92.56 96.35 93.40 94.39
  Q 93.59 93.93 94.07 93.80
  C 95.58 93.39 104.83 91.50 105.77 93.17
  Q 106.11 93.78 105.41 93.74
  Q 104.62 93.69 104.28 94.42
  Q 104.10 94.83 104.51 94.99
  L 107.39 96.07
  Q 108.54 96.50 107.36 96.84
  Q 105.66 97.34 104.08 96.53
  Q 103.56 96.26 103.26 96.77
  L 103.04 97.13
  Q 102.77 97.59 102.25 97.71
  C 100.31 98.17 99.05 98.63 96.96 98.15
  C 92.71 97.18 89.08 99.57 84.45 98.15
  Q 83.02 97.71 82.12 98.50
  A 0.78 0.78 0.0 0 0 82.56 99.86
  C 87.12 100.28 92.29 99.04 96.54 100.11
  Q 102.21 101.54 108.12 102.05
  A 0.45 0.44 -59.8 0 1 108.33 102.86
  Q 105.63 104.73 102.63 103.22
  A 0.70 0.70 0.0 0 0 101.80 104.32
  L 104.02 106.69
  Q 104.62 107.33 104.94 106.51
  C 106.05 103.64 108.00 107.29 110.30 107.05
  Q 110.95 106.99 110.97 106.34
  L 111.01 105.29
  Q 111.03 104.69 111.52 104.35
  L 114.17 102.50
  Q 114.64 102.18 115.10 102.51
  C 115.73 102.97 117.50 104.61 116.88 105.49
  Q 116.54 105.97 116.09 105.59
  Q 114.85 104.56 113.39 105.29
  Q 112.85 105.55 112.74 106.15
  Q 112.39 108.14 110.74 109.20
  Q 110.26 109.52 110.50 110.04
  Q 110.95 111.01 111.77 110.63
  Q 112.21 110.42 112.69 110.56
  C 113.42 110.77 116.63 111.72 116.98 110.82
  Q 117.12 110.46 116.76 110.32
  Q 114.65 109.49 113.27 107.64
  Q 112.82 107.03 113.57 107.02
  Q 117.89 106.97 122.19 106.97
  C 126.49 106.98 130.69 105.48 135.49 106.13
  Q 136.32 106.24 135.90 105.52
  L 135.71 105.21
  Q 135.59 105.01 135.36 104.98
  Q 132.92 104.65 131.03 103.04
  Q 130.57 102.66 130.06 102.96
  Q 126.00 105.39 122.00 105.16
  Q 119.99 105.05 118.67 105.55
  Q 117.92 105.83 118.02 105.04
  Q 118.12 104.27 117.42 103.82
  Q 115.04 102.27 117.82 103.08
  Q 119.08 103.45 120.34 103.93
  Q 120.81 104.10 121.30 104.03
  Q 124.80 103.50 128.13 102.46
  C 131.33 101.46 134.06 102.13 137.33 101.97
  A 0.45 0.45 0.0 0 1 137.71 102.69
  Q 136.74 103.95 137.18 105.42
  Q 137.35 106.00 137.96 106.00
  L 147.05 106.00
  A 0.85 0.85 0.0 0 0 147.89 105.28
  L 147.96 104.81
  Q 148.10 103.90 147.22 104.17
  L 145.02 104.82
  Q 144.51 104.97 144.26 104.50
  L 144.02 104.06
  Q 143.63 103.33 144.46 103.29
  Q 155.37 102.78 166.24 101.96
  C 171.19 101.59 176.14 104.17 180.65 101.92
  A 0.48 0.47 -58.2 0 0 180.44 101.02
  L 177.54 100.99
  A 0.35 0.35 0.0 0 1 177.42 100.32
  Q 181.60 98.76 183.75 101.99
  A 0.54 0.54 0.0 0 0 184.73 101.78
  Q 184.85 101.12 184.36 100.60
  Q 183.79 100.00 184.58 99.73
  Q 185.82 99.31 187.10 99.77
  A 0.46 0.46 0.0 0 0 187.66 99.11
  L 186.28 96.69
  A 0.47 0.47 0.0 0 1 186.78 96.00
  Q 188.93 96.42 188.29 98.40
  Q 188.11 98.96 188.68 99.08
  L 193.34 100.01
  Q 193.79 100.10 194.23 99.96
  Q 197.11 98.97 200.14 99.40
  Q 200.66 99.47 200.94 99.03
  L 202.02 97.31
  Q 202.52 96.53 202.83 97.40
  L 203.26 98.58
  Q 203.57 99.44 203.99 98.63
  L 204.99 96.67
  Q 205.21 96.24 205.69 96.14
  L 216.11 94.07
  Q 216.66 93.96 216.75 94.51
  Q 216.77 94.65 216.74 94.80
  Q 216.67 95.10 216.41 95.25
  Q 214.83 96.19 212.96 95.98
  Q 212.32 95.91 212.44 96.55
  Q 212.63 97.57 213.61 98.12
  Q 214.26 98.48 213.57 98.77
  L 210.88 99.87
  Q 210.23 100.14 210.46 100.80
  L 211.01 102.43
  Q 211.23 103.07 211.91 103.07
  C 213.44 103.05 217.18 101.46 218.17 102.92
  Q 218.56 103.49 217.86 103.56
  Q 217.06 103.64 216.58 104.24
  Q 215.96 105.01 216.96 105.01
  L 227.57 104.98
  A 0.44 0.44 0.0 0 0 227.62 104.10
  C 226.47 103.98 219.39 103.86 219.21 103.54
  Q 218.89 103.00 219.52 103.00
  L 226.57 103.00
  Q 227.17 103.00 227.69 102.70
  Q 230.67 101.02 233.97 101.65
  Q 234.47 101.74 234.94 101.53
  Q 236.16 100.97 235.74 99.92
  Q 235.58 99.52 235.73 99.10
  Q 236.15 97.86 237.69 98.35
  Q 239.34 98.89 237.60 98.91
  Q 236.83 98.93 236.32 99.33
  Q 235.65 99.85 236.42 100.19
  C 237.87 100.84 239.52 97.21 239.88 96.20
  A 1.64 1.64 0.0 0 0 238.34 94.00
  L 237.93 94.00
  Q 237.43 94.00 237.43 94.50
  L 237.43 95.55
  Q 237.43 96.40 236.70 95.96
  C 234.59 94.67 237.80 92.31 239.44 92.21
  Q 240.22 92.16 239.67 92.71
  L 239.41 92.97
  Q 239.08 93.30 239.35 93.68
  C 240.26 94.94 244.05 93.56 245.33 93.24
  Q 246.48 92.96 245.68 93.83
  C 244.26 95.39 241.99 94.50 241.17 95.45
  Q 240.40 96.33 241.56 96.16
  L 247.75 95.20
  Q 248.27 95.12 248.75 95.35
  Q 251.23 96.54 253.68 95.24
  Q 254.17 94.98 254.59 95.32
  Q 260.57 100.10 268.26 100.08
  A 0.66 0.66 0.0 0 0 268.58 98.84
  L 264.75 96.69
  A 0.79 0.79 0.0 0 1 265.04 95.21
  C 268.24 94.85 273.56 94.49 275.85 96.93
  C 277.01 98.16 278.25 100.87 280.15 100.63
  Q 280.65 100.57 281.07 100.83
  Q 283.52 102.38 286.39 102.94
  Q 286.95 103.05 287.46 102.78
  L 287.99 102.50
  Q 288.45 102.25 288.93 102.46
  Q 291.31 103.50 293.26 102.98
  C 296.87 102.02 298.72 102.68 301.85 102.74
  Q 315.17 102.98 328.49 103.03
  Q 328.99 103.03 329.34 102.67
  C 331.06 100.96 336.87 100.44 334.10 102.62
  A 0.65 0.65 0.0 0 0 334.27 103.74
  Q 336.52 104.61 338.46 103.30
  Q 338.85 103.04 339.31 103.10
  Q 343.23 103.64 346.42 101.53
  Q 346.89 101.21 347.46 101.17
  Q 350.65 100.96 353.81 101.48
  Q 354.31 101.56 354.79 101.41
  Q 356.79 100.77 358.90 101.03
  Q 359.44 101.09 359.85 101.47
  Q 361.09 102.62 362.21 101.43
  Q 362.54 101.08 363.02 101.10
  Q 368.18 101.34 372.85 99.19
  Q 373.36 98.96 373.93 99.03
  Q 391.68 101.33 404.75 101.21
  Q 414.12 101.13 419.75 102.06
  Q 420.03 102.11 420.01 101.82
  Q 420.00 101.65 420.00 101.51
  Q 419.99 101.14 419.62 101.06
  C 413.25 99.78 405.50 101.46 406.02 92.90
  Q 406.12 91.23 407.50 92.17
  Q 408.05 92.55 408.28 93.07
  Q 408.47 93.50 408.92 93.39
  L 410.41 93.02
  Q 411.42 92.78 411.14 93.78
  L 410.39 96.53
  Q 410.27 96.97 410.63 97.25
  C 413.07 99.11 419.42 98.89 422.58 99.06
  Q 422.99 99.08 423.32 98.84
  L 425.86 96.96
  Q 426.49 96.49 426.71 97.24
  Q 427.67 100.46 430.72 101.05
  Q 438.03 102.47 446.07 101.88
  Q 446.57 101.85 446.81 101.41
  Q 447.96 99.32 450.07 99.83
  Q 454.57 100.91 458.27 100.61
  C 463.87 100.15 468.89 100.27 475.18 100.60
  Q 485.33 101.13 500.00 100.50
  Z
  M 409.41 96.87
  L 408.45 97.12
  Q 407.89 97.27 408.30 97.67
  L 408.56 97.94
  Q 408.79 98.17 409.49 98.00
  Q 409.85 97.92 410.00 97.55
  Q 410.40 96.61 409.41 96.87
  Z
  M 76.50 99.40
  Q 76.37 100.17 77.13 99.99
  Q 78.21 99.74 78.76 98.75
  A 0.49 0.49 0.0 0 0 78.43 98.04
  Q 76.80 97.74 76.50 99.40
  Z
  M 273.26 101.44
  A 0.39 0.39 0.0 0 0 273.68 101.99
  L 276.36 101.48
  Q 276.88 101.39 276.54 100.98
  C 275.36 99.56 274.06 99.83 273.26 101.44
  Z
  M 190.9395 101.5465
  A 0.61 0.61 0.0 0 0 190.3668 100.9014
  L 186.9927 100.7010
  A 0.61 0.61 0.0 0 0 186.3476 101.2737
  L 186.3405 101.3935
  A 0.61 0.61 0.0 0 0 186.9132 102.0386
  L 190.2873 102.2390
  A 0.61 0.61 0.0 0 0 190.9324 101.6663
  L 190.9395 101.5465
  Z
  M 203.31 102.94
  Q 202.65 101.69 201.47 102.11
  Q 200.39 102.48 201.44 102.94
  L 203.26 103.73
  Q 203.90 104.02 203.77 103.32
  Q 203.69 102.91 203.31 102.94
  Z
  M 198.94 102.94
  Q 198.59 103.26 198.85 103.77
  A 0.51 0.51 0.0 0 0 199.53 103.99
  Q 200.90 103.30 199.68 102.15
  A 0.38 0.37 26.3 0 0 199.05 102.36
  Q 198.99 102.71 198.94 102.94
  Z
  M 188.39 103.42
  A 0.57 0.56 -89.0 0 0 189.13 104.19
  L 189.70 103.92
  A 0.46 0.46 0.0 0 0 189.68 103.08
  Q 188.77 102.68 188.39 103.42
  Z
  M 161.73 104.29
  C 161.21 103.90 160.49 103.78 160.24 104.50
  Q 160.06 105.00 160.59 105.00
  L 161.49 105.00
  A 0.40 0.39 -26.4 0 0 161.73 104.29
  Z
  M 167.68 104.55
  Q 168.78 105.07 170.05 104.59
  Q 170.96 104.25 169.99 104.25
  L 167.75 104.25
  Q 167.04 104.25 167.68 104.55
  Z
  M 103.00 107.79
  Q 103.00 107.65 103.03 107.49
  Q 103.37 105.60 102.39 107.52
  Q 102.22 107.87 102.56 108.22
  Q 102.98 108.64 102.52 109.02
  Q 101.69 109.70 102.26 110.58
  Q 102.58 111.07 103.16 111.02
  Q 104.12 110.95 104.14 109.91
  Q 104.15 109.27 104.77 109.47
  L 106.29 109.97
  Q 106.98 110.20 106.98 109.47
  L 106.98 108.54
  Q 106.98 107.78 106.23 107.83
  L 103.24 108.02
  Q 103.01 108.03 103.00 107.79
  Z
  M 96.48 109.90
  L 96.21 109.56
  Q 95.91 109.19 95.46 109.32
  L 92.42 110.20
  Q 92.35 110.22 92.32 110.28
  Q 92.28 110.40 92.25 110.53
  Q 92.13 110.92 92.54 110.94
  C 94.73 111.06 99.10 111.48 99.71 109.77
  Q 99.93 109.15 99.30 109.33
  L 96.85 110.01
  Q 96.63 110.08 96.48 109.90
  Z
  M 170.25 122.23
  Q 170.25 122.37 170.25 122.51
  Q 170.26 123.00 170.75 123.00
  L 171.50 123.00
  Q 171.75 123.00 171.75 122.75
  Q 171.75 122.62 171.75 122.49
  Q 171.74 122.00 171.25 122.00
  L 170.48 122.00
  Q 170.25 122.00 170.25 122.23
  Z
  M 172.03 126.00
  L 167.74 126.00
  A 0.75 0.75 0.0 0 0 166.99 126.77
  Q 167.02 128.29 168.42 128.49
  Q 168.96 128.56 169.36 128.20
  Q 170.57 127.08 172.35 127.53
  Q 172.67 127.62 172.83 127.91
  Q 172.89 128.02 172.95 128.13
  Q 173.18 128.57 173.67 128.46
  Q 177.07 127.68 180.57 128.03
  Q 180.99 128.08 181.37 127.89
  Q 182.18 127.49 182.00 126.75
  Q 181.86 126.21 181.32 126.07
  L 180.13 125.77
  Q 179.58 125.64 179.67 125.07
  L 179.78 124.47
  Q 179.88 123.89 179.30 124.02
  C 176.99 124.55 175.77 125.92 173.23 123.92
  Q 172.44 123.30 172.38 124.31
  Q 172.34 124.85 172.49 125.39
  Q 172.66 126.00 172.03 126.00
  Z
  M 242.59 128.15
  C 240.17 127.65 237.09 127.98 235.19 129.45
  Q 234.08 130.30 235.45 130.06
  L 242.58 128.78
  A 0.32 0.32 0.0 0 0 242.59 128.15
  Z
  M 161.22 129.12
  Q 160.37 130.08 161.74 129.99
  Q 162.00 129.97 162.00 129.72
  L 162.00 129.41
  Q 162.00 128.23 161.22 129.12
  Z
  M 171.94 133.39
  C 172.14 130.10 164.06 127.99 163.01 129.46
  Q 162.66 129.95 163.06 130.41
  Q 164.01 131.50 164.00 132.92
  A 0.99 0.99 0.0 0 0 165.41 133.81
  L 169.11 132.04
  Q 170.07 131.58 170.00 132.64
  Q 169.90 134.09 171.33 134.01
  Q 171.91 133.97 171.94 133.39
  Z
  M 177.29 129.70
  Q 178.32 130.53 178.83 129.37
  Q 179.09 128.75 178.46 128.96
  Q 178.22 129.04 178.02 128.96
  Q 174.61 127.51 177.29 129.70
  Z
  M 157.9028 131.0784
  A 0.69 0.62 136.1 0 0 158.8299 131.0467
  A 0.69 0.62 136.1 0 0 158.8972 130.1216
  A 0.69 0.62 136.1 0 0 157.9701 130.1533
  A 0.69 0.62 136.1 0 0 157.9028 131.0784
  Z
  M 220.76 130.45
  L 220.87 131.60
  A 0.26 0.26 0.0 0 0 221.16 131.84
  L 221.27 131.83
  A 6.55 0.77 -5.6 0 0 227.71 130.42
  L 227.70 130.28
  A 6.55 0.77 -5.6 0 0 221.10 130.16
  L 220.99 130.17
  A 0.26 0.26 0.0 0 0 220.76 130.45
  Z
  M 160.93 133.58
  C 160.29 132.60 157.15 132.69 155.74 131.95
  Q 154.28 131.19 154.72 132.78
  C 155.20 134.56 159.12 134.27 160.56 134.27
  A 0.45 0.44 -17.0 0 0 160.93 133.58
  Z
  M 159.26 136.44
  Q 159.31 135.76 158.85 135.31
  Q 158.27 134.74 158.00 135.50
  L 157.33 137.34
  Q 157.16 137.81 157.66 137.75
  Q 158.00 137.70 158.21 137.44
  Q 158.61 136.95 158.94 137.49
  Q 159.81 138.88 161.48 139.01
  Q 162.17 139.06 161.85 138.44
  Q 161.17 137.14 159.69 136.96
  Q 159.22 136.91 159.26 136.44
  Z
  M 446.38 137.74
  C 445.97 137.67 445.40 138.04 445.29 138.38
  Q 445.08 139.00 445.74 139.00
  L 447.45 139.00
  Q 448.41 139.00 447.80 138.26
  Q 447.56 137.96 447.30 137.90
  Q 447.13 137.86 446.38 137.74
  Z
  M 488.95 140.25
  Q 489.50 139.55 488.61 139.55
  C 480.78 139.59 473.32 138.57 465.42 140.03
  A 0.45 0.45 0.0 0 0 465.50 140.92
  C 468.65 140.93 487.87 141.62 488.95 140.25
  Z
  M 486.70 142.53
  Q 487.62 143.07 488.78 142.59
  Q 489.60 142.25 488.71 142.25
  L 486.77 142.25
  Q 486.22 142.25 486.70 142.53
  Z
  M 59.83 145.43
  C 58.86 145.56 50.93 145.38 52.05 148.30
  Q 52.23 148.76 52.69 148.92
  Q 54.54 149.56 55.24 149.42
  Q 63.26 147.78 71.48 146.94
  A 0.83 0.83 0.0 0 0 72.23 146.11
  C 72.24 143.98 61.35 145.24 59.83 145.43
  Z
  M 304.14 148.92
  Q 303.82 149.41 304.19 149.95
  Q 304.54 150.48 304.93 149.96
  Q 305.34 149.41 304.68 148.85
  Q 304.36 148.58 304.14 148.92
  Z
  M 83.90 153.53
  L 84.16 153.78
  Q 84.48 154.11 84.91 153.96
  L 88.38 152.73
  Q 88.94 152.54 89.09 151.97
  Q 89.29 151.27 88.89 150.59
  Q 88.57 150.04 88.02 150.36
  L 84.02 152.66
  Q 83.39 153.02 83.90 153.53
  Z
  M 10.78 155.46
  Q 11.16 154.50 10.20 154.85
  L 9.55 155.09
  A 0.45 0.45 0.0 0 0 9.53 155.92
  Q 10.46 156.29 10.78 155.46
  Z
  M 5.79 162.00
  A 0.41 0.41 0.0 0 0 5.70 161.25
  L 4.51 160.95
  A 0.45 0.45 0.0 0 0 4.06 161.68
  Q 4.80 162.54 5.79 162.00
  Z
  M 188.51 164.15
  Q 186.79 163.11 184.78 162.97
  Q 183.97 162.91 184.20 163.70
  Q 184.58 164.98 183.66 165.71
  Q 183.24 166.05 182.69 166.02
  Q 181.42 165.94 180.83 166.99
  A 0.57 0.57 0.0 0 0 181.55 167.79
  C 183.02 167.17 187.83 166.19 188.68 165.11
  A 0.65 0.65 0.0 0 0 188.51 164.15
  Z
  M 480.77 168.65
  Q 481.65 170.43 483.65 170.04
  A 0.42 0.42 0.0 0 0 483.85 169.31
  L 482.29 167.93
  Q 481.81 167.52 482.38 167.24
  Q 483.37 166.74 484.51 167.10
  Q 484.62 167.13 484.66 167.02
  Q 484.72 166.84 484.78 166.67
  Q 484.96 166.16 484.44 166.03
  Q 480.91 165.15 477.34 165.56
  Q 476.89 165.61 476.44 165.51
  L 473.96 164.94
  Q 473.45 164.82 473.30 165.32
  Q 473.24 165.56 473.24 165.82
  Q 473.25 166.36 473.77 166.49
  L 480.13 168.14
  Q 480.57 168.25 480.77 168.65
  Z
  M 178.55 166.84
  L 177.42 167.00
  A 0.46 0.46 0.0 0 0 177.21 167.83
  Q 178.52 168.80 179.02 167.42
  Q 179.27 166.74 178.55 166.84
  Z
  M 490.0477 169.7073
  A 2.46 0.66 2.5 0 0 487.6188 168.9406
  A 2.46 0.66 2.5 0 0 485.1323 169.4927
  A 2.46 0.66 2.5 0 0 487.5612 170.2594
  A 2.46 0.66 2.5 0 0 490.0477 169.7073
  Z
  M 161.21 170.76
  L 161.45 172.99
  A 0.27 0.27 0.0 0 0 161.75 173.23
  L 161.91 173.21
  A 11.26 1.31 -6.0 0 0 172.98 170.73
  L 172.96 170.57
  A 11.26 1.31 -6.0 0 0 161.62 170.44
  L 161.46 170.46
  A 0.27 0.27 0.0 0 0 161.21 170.76
  Z
  M 158.45 172.76
  Q 159.79 173.41 160.09 171.91
  A 0.78 0.78 0.0 0 0 158.98 171.05
  L 158.45 171.30
  A 0.81 0.81 0.0 0 0 158.45 172.76
  Z
  M 35.35 176.07
  A 0.48 0.48 0.0 0 0 35.52 177.00
  L 39.28 177.00
  Q 39.89 177.00 39.76 176.40
  C 39.32 174.39 36.92 175.48 35.35 176.07
  Z
  M 417.10 201.12
  L 417.10 200.81
  Q 417.10 200.30 417.61 200.25
  C 420.71 199.91 425.98 200.48 427.18 199.45
  A 0.68 0.68 0.0 0 0 426.84 198.26
  C 423.77 197.79 412.52 195.56 410.40 197.26
  Q 409.55 197.94 410.63 198.10
  L 412.35 198.36
  Q 412.48 198.38 412.50 198.51
  Q 412.52 198.66 412.40 198.74
  Q 408.32 201.37 405.59 198.12
  Q 405.22 197.69 405.52 197.21
  Q 406.04 196.39 405.01 195.85
  Q 403.82 195.23 403.40 196.50
  Q 402.71 198.55 404.46 199.37
  Q 405.20 199.72 404.41 199.89
  L 399.75 200.90
  Q 399.15 201.02 398.72 200.59
  L 397.48 199.35
  Q 397.10 198.97 396.57 199.06
  L 381.46 201.55
  A 0.66 0.66 0.0 0 0 381.46 202.85
  C 386.70 203.70 391.04 201.96 397.50 203.11
  Q 398.01 203.20 398.50 203.01
  C 400.75 202.11 402.61 202.88 404.30 202.91
  Q 416.59 203.15 428.89 203.17
  Q 429.36 203.18 429.60 202.77
  L 429.76 202.52
  Q 430.02 202.08 429.51 202.07
  L 417.80 201.84
  Q 417.10 201.82 417.10 201.12
  Z
  M 29.79 197.84
  Q 28.13 198.30 26.76 197.50
  Q 26.40 197.29 26.01 197.39
  L 13.18 200.66
  Q 12.75 200.77 12.75 201.21
  L 12.75 201.58
  A 0.47 0.47 0.0 0 0 13.31 202.04
  L 27.07 199.47
  Q 27.51 199.39 27.89 199.64
  C 28.85 200.26 30.48 199.88 30.73 198.74
  A 0.76 0.76 0.0 0 0 29.79 197.84
  Z
  M 472.99 199.98
  L 477.47 199.98
  A 0.26 0.26 0.0 0 0 477.73 199.72
  L 477.73 199.35
  A 2.33 1.57 0.0 0 0 475.40 197.78
  L 475.06 197.78
  A 2.33 1.57 -0.0 0 0 472.73 199.35
  L 472.73 199.72
  A 0.26 0.26 0.0 0 0 472.99 199.98
  Z
  M 455.30 199.33
  C 454.82 200.10 456.48 200.16 457.07 199.45
  A 0.71 0.71 0.0 0 0 456.71 198.31
  Q 455.81 198.07 455.49 199.00
  Q 455.48 199.04 455.30 199.33
  Z
  M 445.3568 201.2061
  A 0.64 0.51 105.7 0 0 446.0210 200.7280
  A 0.64 0.51 105.7 0 0 445.7032 199.9739
  A 0.64 0.51 105.7 0 0 445.0390 200.4520
  A 0.64 0.51 105.7 0 0 445.3568 201.2061
  Z
  M 92.8618 202.8476
  A 0.82 0.82 0.0 0 0 92.0980 201.9751
  L 74.2373 200.7888
  A 0.82 0.82 0.0 0 0 73.3648 201.5526
  L 73.3582 201.6524
  A 0.82 0.82 0.0 0 0 74.1220 202.5249
  L 91.9827 203.7112
  A 0.82 0.82 0.0 0 0 92.8552 202.9474
  L 92.8618 202.8476
  Z
  M 485.35 202.39
  A 0.42 0.41 19.7 0 0 485.61 202.93
  Q 486.94 203.36 487.92 202.49
  A 0.83 0.83 0.0 0 0 487.46 201.05
  Q 485.90 200.87 485.35 202.39
  Z
  M 10.53 202.03
  C 9.95 201.91 9.60 201.60 9.29 202.46
  A 0.38 0.38 0.0 0 0 9.63 202.97
  L 10.49 203.01
  Q 10.75 203.02 10.75 202.76
  L 10.75 202.30
  Q 10.75 202.07 10.53 202.03
  Z
  M 94.22 203.16
  A 0.44 0.43 -69.4 0 0 94.54 203.88
  L 95.40 203.87
  A 0.47 0.47 0.0 0 0 95.72 203.06
  Q 94.94 202.33 94.22 203.16
  Z
  M 16.61 205.00
  C 15.40 204.75 14.40 204.40 13.34 205.21
  Q 12.34 205.98 13.60 205.99
  L 16.75 206.01
  Q 17.04 206.01 17.03 205.72
  Q 17.02 205.57 17.01 205.45
  Q 16.97 205.08 16.61 205.00
  Z
  M 21.83 205.48
  L 21.67 205.01
  Q 21.21 203.64 20.60 204.95
  Q 19.89 206.45 21.61 205.92
  Q 21.94 205.81 21.83 205.48
  Z
  M 8.00 205.73
  Q 8.03 205.99 8.27 206.12
  Q 8.89 206.45 8.98 205.76
  Q 9.16 204.34 8.12 205.37
  Q 7.97 205.52 8.00 205.73
  Z
  M 391.67 229.06
  A 0.50 0.50 0.0 0 0 391.27 229.91
  Q 391.96 230.60 392.72 230.07
  A 0.51 0.51 0.0 0 0 392.48 229.14
  L 391.67 229.06
  Z
  M 315.44 233.19
  Q 315.17 233.39 315.35 233.71
  A 0.68 0.68 0.0 0 0 316.22 234.01
  Q 317.29 233.55 316.95 232.37
  A 0.55 0.55 0.0 0 0 316.07 232.10
  Q 315.43 232.64 315.44 233.19
  Z
  M 75.42 235.10
  L 78.41 235.76
  A 0.24 0.24 0.0 0 0 78.69 235.58
  L 78.72 235.47
  A 1.37 1.29 12.5 0 0 77.66 233.92
  L 76.88 233.74
  A 1.37 1.29 12.5 0 0 75.26 234.71
  L 75.24 234.81
  A 0.24 0.24 0.0 0 0 75.42 235.10
  Z
  M 82.36 235.83
  Q 82.06 235.46 81.67 235.37
  Q 79.96 234.97 81.24 236.03
  Q 82.17 236.79 83.37 237.01
  Q 83.75 237.08 83.75 236.70
  L 83.75 236.39
  Q 83.75 235.97 83.33 235.97
  L 82.66 235.97
  Q 82.48 235.97 82.36 235.83
  Z"
/>
<path fill="#D51313" d="
  M 450.64 96.22
  L 449.66 95.82
  Q 449.08 95.58 449.40 95.05
  C 450.31 93.52 452.82 94.09 452.73 96.20
  Q 452.71 96.77 452.15 96.88
  Q 451.15 97.07 451.01 98.16
  Q 450.94 98.70 450.38 98.68
  C 449.46 98.63 450.33 97.29 450.74 96.97
  Q 451.34 96.51 450.64 96.22
  Z"
/>
<path fill="#D51313" d="
  M 221.75 95.78
  L 223.95 95.45
  A 0.79 0.79 0.0 0 1 224.74 96.66
  Q 222.61 100.05 218.47 98.80
  Q 217.59 98.54 218.12 97.79
  L 219.31 96.12
  Q 219.58 95.74 219.99 95.50
  Q 220.81 95.01 221.08 95.46
  Q 221.31 95.85 221.75 95.78
  Z"
/>
<ellipse fill="#D51313" cx="0.00" cy="0.00" transform="translate(422.24,96.10) rotate(121.3)" rx="0.93" ry="0.65"/>
<path fill="#D51313" d="
  M 286.80 99.55
  L 287.25 99.22
  A 0.51 0.50 80.7 0 1 288.03 99.78
  L 287.86 100.31
  A 0.59 0.58 -79.5 0 1 287.28 100.72
  Q 286.56 100.69 286.50 100.25
  Q 286.44 99.81 286.80 99.55
  Z"
/>
<ellipse fill="#D51313" cx="0.00" cy="0.00" transform="translate(172.99,100.54) rotate(1.2)" rx="1.80" ry="0.52"/>
<path fill="#D51313" d="
  M 224.19 100.69
  Q 224.19 100.54 224.27 100.39
  Q 224.49 100.03 224.76 100.35
  Q 225.29 100.99 224.79 101.61
  A 0.45 0.45 0.0 0 1 224.01 101.48
  Q 223.87 101.10 224.19 100.69
  Z"
/>
<path fill="#D51313" d="
  M 147.44 101.81
  Q 144.04 101.33 142.18 103.67
  Q 141.58 104.43 141.32 103.50
  L 140.90 102.00
  Q 140.66 101.16 141.53 101.15
  L 148.67 101.00
  A 0.37 0.37 0.0 0 1 148.84 101.70
  Q 147.89 102.17 147.44 101.81
  Z"
/>
<path fill="#D51313" d="
  M 8.44 151.53
  L 8.79 150.58
  Q 8.96 150.12 9.43 150.27
  L 9.90 150.42
  A 0.44 0.44 0.0 0 1 9.96 151.24
  L 8.76 151.82
  A 0.23 0.23 0.0 0 1 8.44 151.53
  Z"
/>
<path fill="#D51313" d="
  M 0.00 155.44
  L 0.00 154.94
  Q 0.61 153.50 2.04 154.13
  Q 2.54 154.36 2.18 154.77
  Q 1.35 155.71 0.00 155.44
  Z"
/>
<path fill="#D51313" d="
  M 500.00 190.56
  L 500.00 191.56
  Q 499.66 191.73 499.75 192.22
  Q 499.82 192.65 499.39 192.71
  L 499.09 192.75
  Q 498.62 192.81 498.59 192.34
  Q 498.47 190.49 500.00 190.56
  Z"
/>
<path fill="#D51313" d="
  M 22.00 229.25
  Q 22.58 229.12 22.94 229.57
  Q 23.26 229.97 22.74 230.00
  Q 22.14 230.04 21.56 229.95
  Q 19.93 229.70 22.00 229.25
  Z"
/>
<path fill="#D51313" d="
  M 443.13 233.01
  C 442.08 230.62 445.29 229.94 446.88 230.97
  Q 447.35 231.28 447.74 230.88
  L 448.05 230.57
  Q 448.90 229.72 448.57 230.88
  L 447.76 233.63
  Q 447.62 234.11 447.12 234.04
  L 445.87 233.85
  Q 445.37 233.78 445.25 233.28
  Q 445.08 232.60 444.53 232.23
  Q 443.82 231.77 443.56 232.57
  L 443.42 232.99
  Q 443.29 233.38 443.13 233.01
  Z"
/>
<path fill="#D51313" d="
  M 8.29 231.37
  C 8.36 230.12 11.20 232.15 8.83 231.98
  Q 8.26 231.94 8.29 231.37
  Z"
/>
<path fill="#D51313" d="
  M 211.68 231.13
  L 213.16 231.28
  Q 213.57 231.32 213.42 231.70
  C 213.20 232.24 211.68 232.02 211.39 231.76
  A 0.37 0.37 0.0 0 1 211.68 231.13
  Z"
/>
<path fill="#D51313" d="
  M 433.08 231.26
  A 0.63 0.63 0.0 0 1 433.80 232.20
  Q 432.61 234.01 430.61 233.17
  A 0.60 0.60 0.0 0 1 430.66 232.04
  L 433.08 231.26
  Z"
/>
<path fill="#D51313" d="
  M 170.56 232.58
  L 173.40 231.94
  Q 174.35 231.72 173.77 232.51
  L 173.59 232.76
  Q 173.28 233.19 172.75 233.15
  Q 170.69 232.98 170.73 234.48
  Q 170.75 235.60 170.04 234.74
  L 168.48 232.86
  Q 168.10 232.40 168.68 232.27
  Q 169.17 232.16 169.53 232.39
  Q 170.01 232.70 170.56 232.58
  Z"
/>
<ellipse fill="#D51313" cx="0.00" cy="0.00" transform="translate(396.16,233.84) rotate(38.4)" rx="1.01" ry="0.70"/>
<path fill="#D51313" d="
  M 429.08 237.86
  Q 428.83 238.61 427.85 238.83
  Q 427.44 238.92 427.26 238.54
  L 427.15 238.30
  Q 426.91 237.80 427.11 237.29
  Q 427.77 235.65 427.21 233.99
  A 0.75 0.75 0.0 0 1 428.29 233.10
  C 428.98 233.49 432.87 236.58 431.88 237.60
  Q 431.41 238.07 430.97 237.58
  Q 430.53 237.08 429.72 237.27
  Q 429.23 237.38 429.08 237.86
  Z"
/>
<path fill="#D51313" d="
  M 442.69 233.85
  A 0.23 0.22 -63.5 0 1 443.01 233.74
  C 444.43 234.53 444.07 237.02 442.30 235.36
  A 0.30 0.30 0.0 0 1 442.22 235.02
  L 442.69 233.85
  Z"
/>
<ellipse fill="#D51313" cx="0.00" cy="0.00" transform="translate(472.12,235.55) rotate(-30.7)" rx="2.08" ry="1.21"/>
<path fill="#D51313" d="
  M 286.11 236.46
  Q 289.06 234.98 292.40 235.34
  A 0.52 0.51 -82.5 0 1 292.85 235.93
  C 292.45 238.63 288.20 238.14 286.35 237.88
  A 0.76 0.75 35.5 0 1 286.11 236.46
  Z"
/>
<path fill="#D51313" d="
  M 41.18 238.75
  A 0.19 0.19 0.0 0 1 41.26 238.98
  Q 40.83 240.01 39.60 239.71
  Q 38.95 239.55 39.05 238.88
  L 39.10 238.54
  Q 39.23 237.70 39.98 238.10
  L 41.18 238.75
  Z"
/>
<path fill="#D51313" d="
  M 295.94 239.57
  Q 296.69 239.83 296.06 240.32
  Q 295.47 240.79 294.74 240.75
  Q 294.25 240.73 294.25 240.24
  L 294.25 239.65
  Q 294.25 238.98 294.88 239.20
  L 295.94 239.57
  Z"
/>
<path fill="#D51313" d="
  M 140.24 240.76
  C 140.79 240.83 141.76 241.26 142.03 241.69
  Q 142.42 242.31 141.72 242.08
  L 140.07 241.54
  A 0.40 0.40 0.0 0 1 140.24 240.76
  Z"
/>
<path fill="#D51313" d="
  M 94.52 243.17
  Q 95.52 243.35 94.60 243.78
  C 93.75 244.19 89.95 245.17 89.32 243.91
  Q 89.10 243.49 89.56 243.37
  Q 92.03 242.73 94.52 243.17
  Z"
/>
<path fill="#D51313" d="
  M 137.48 246.24
  L 137.86 246.29
  A 0.38 0.38 0.0 0 1 138.15 246.84
  C 136.18 250.76 135.94 245.32 136.62 243.96
  Q 136.87 243.48 137.24 243.88
  Q 137.35 243.99 137.50 244.00
  Q 140.02 244.08 138.03 244.79
  Q 137.18 245.10 137.24 245.99
  Q 137.26 246.21 137.48 246.24
  Z"
/>
</svg>
