<?xml version="1.0" encoding="UTF-8" standalone="no"?>
<!DOCTYPE svg PUBLIC "-//W3C//DTD SVG 1.1//EN" "http://www.w3.org/Graphics/SVG/1.1/DTD/svg11.dtd">
<svg xmlns="http://www.w3.org/2000/svg" version="1.1" viewBox="0.00 0.00 499.00 500.00">
<path fill="#D51313" d="
  M 0.00 0.00
  L 5.06 0.00
  Q 7.90 0.93 9.20 2.04
  C 20.50 11.69 32.09 22.38 44.89 29.93
  A 0.53 0.51 -35.3 0 0 45.28 29.99
  Q 46.47 29.74 45.38 28.88
  Q 29.47 16.21 14.00 2.86
  A 0.33 0.33 0.0 0 1 14.32 2.29
  C 17.49 3.27 20.82 3.69 23.45 5.94
  Q 30.63 12.09 44.96 22.53
  C 48.48 25.09 51.79 25.97 55.37 28.03
  A 1.87 1.86 -69.6 0 0 58.13 26.76
  Q 58.55 24.49 56.08 22.15
  Q 44.58 11.29 32.93 0.59
  Q 32.74 0.41 32.99 0.34
  Q 33.12 0.30 33.27 0.23
  Q 33.62 0.08 33.90 0.34
  Q 44.94 10.61 57.59 18.81
  A 0.36 0.36 0.0 0 0 58.11 18.35
  L 56.47 14.89
  Q 56.26 14.42 56.33 13.92
  Q 56.99 9.07 53.47 5.80
  Q 53.04 5.40 53.57 5.14
  C 55.28 4.30 61.75 9.55 63.35 10.76
  A 0.41 0.41 0.0 0 0 64.00 10.50
  Q 64.21 9.24 63.05 8.98
  Q 62.52 8.86 62.27 8.37
  L 61.01 5.98
  Q 60.88 5.74 61.07 5.55
  L 61.31 5.31
  Q 61.66 4.97 61.99 5.33
  Q 63.66 7.19 66.04 7.83
  Q 67.19 8.14 66.58 7.12
  Q 66.08 6.29 65.32 5.74
  Q 64.95 5.48 65.37 5.29
  C 67.24 4.44 98.05 35.62 101.60 34.08
  A 0.96 0.96 0.0 0 0 101.86 32.50
  C 100.81 31.54 94.69 27.19 96.12 25.94
  Q 96.91 25.26 95.88 25.12
  L 94.68 24.95
  Q 94.01 24.86 94.49 24.38
  L 94.71 24.16
  Q 95.19 23.68 95.63 24.20
  Q 97.43 26.39 100.21 26.53
  Q 100.74 26.56 101.17 26.88
  L 107.98 32.01
  A 0.49 0.49 0.0 0 0 108.74 31.78
  C 109.26 30.24 102.19 26.45 101.54 23.64
  Q 101.43 23.16 101.91 23.26
  Q 102.25 23.32 102.38 23.67
  Q 102.57 24.21 103.10 23.98
  C 104.16 23.51 102.87 22.21 102.45 21.81
  Q 102.06 21.43 102.51 21.12
  C 104.52 19.71 115.82 30.45 118.40 31.73
  Q 118.98 32.02 119.15 31.39
  Q 119.41 30.39 118.44 29.56
  Q 109.85 22.23 101.16 14.88
  A 0.43 0.43 0.0 0 1 101.65 14.18
  L 107.26 17.45
  Q 107.61 17.65 107.52 17.25
  C 107.35 16.47 104.84 14.51 104.18 13.60
  A 0.34 0.33 -84.9 0 1 104.69 13.17
  Q 106.98 15.59 109.05 17.14
  C 114.77 21.44 118.83 27.60 124.99 31.27
  Q 125.90 31.82 126.46 32.32
  Q 136.61 41.58 147.24 50.29
  C 149.21 51.91 150.42 53.53 151.90 55.51
  A 0.97 0.96 -58.6 0 0 153.62 55.09
  Q 154.07 52.41 157.03 53.09
  Q 157.57 53.21 157.94 53.62
  Q 160.60 56.60 164.04 58.63
  Q 164.51 58.91 164.86 58.49
  C 165.73 57.45 161.46 54.28 160.45 53.51
  C 156.96 50.85 154.25 47.67 150.90 44.90
  C 135.07 31.85 119.40 19.18 103.55 5.53
  A 0.96 0.95 -60.8 0 1 103.27 4.52
  Q 103.51 3.75 104.07 4.20
  C 117.94 15.44 131.56 25.28 145.14 38.44
  C 148.97 42.16 153.19 45.43 157.29 48.92
  A 0.62 0.61 0.2 0 0 158.16 48.06
  L 155.31 44.69
  Q 155.20 44.56 155.28 44.42
  L 155.41 44.20
  Q 155.58 43.92 155.88 44.03
  Q 157.57 44.61 158.28 45.24
  Q 164.20 50.55 172.25 49.92
  Q 172.78 49.88 172.75 49.35
  Q 172.69 48.13 171.51 47.63
  Q 171.02 47.43 170.65 47.04
  C 169.26 45.56 164.00 42.16 163.47 41.03
  Q 163.26 40.58 163.71 40.79
  C 182.08 49.43 196.56 64.39 211.48 77.91
  C 222.00 87.43 232.43 98.76 243.72 108.51
  C 246.10 110.56 247.57 112.13 250.41 110.44
  A 1.05 1.04 50.6 0 0 250.57 108.77
  Q 242.94 101.90 237.66 93.25
  Q 235.10 89.08 232.83 86.60
  Q 210.41 62.11 183.32 42.80
  Q 182.89 42.50 182.71 42.00
  Q 180.59 36.29 175.05 33.52
  Q 174.64 33.32 174.42 32.93
  C 173.17 30.73 173.33 27.17 171.20 25.80
  Q 167.24 23.24 164.28 19.77
  A 0.46 0.46 0.0 0 1 164.89 19.09
  L 179.30 28.96
  A 0.41 0.40 88.6 0 0 179.85 28.38
  C 177.85 25.79 174.51 23.68 172.77 22.14
  Q 169.13 18.93 165.48 15.75
  Q 156.69 8.10 148.25 0.00
  L 209.06 0.00
  C 211.37 1.89 228.25 16.44 229.55 15.98
  Q 230.22 15.75 230.02 15.07
  L 229.64 13.79
  Q 229.51 13.33 229.91 13.06
  C 230.89 12.40 232.81 14.21 233.87 15.27
  Q 234.25 15.65 234.77 15.51
  Q 237.70 14.69 240.04 16.62
  A 0.68 0.68 0.0 0 0 240.99 15.65
  L 235.77 9.56
  Q 234.93 8.58 236.05 9.21
  Q 238.02 10.31 240.04 9.53
  Q 240.50 9.35 240.93 9.62
  L 244.81 12.01
  Q 245.36 12.35 245.73 11.81
  C 246.79 10.26 245.10 8.08 244.35 6.62
  Q 243.92 5.80 244.83 5.97
  Q 246.93 6.36 247.08 4.41
  Q 247.12 3.90 246.74 3.54
  Q 245.12 2.02 245.31 0.00
  L 246.31 0.00
  Q 249.92 4.37 254.37 7.91
  C 256.60 9.68 259.77 8.66 262.63 9.73
  Q 263.05 9.89 263.34 10.25
  Q 263.72 10.74 264.37 10.77
  Q 265.42 10.82 264.66 10.08
  L 255.11 0.79
  Q 254.97 0.65 255.11 0.51
  L 255.31 0.32
  Q 255.50 0.12 255.71 0.30
  C 258.16 2.46 260.94 4.14 263.12 6.50
  Q 277.07 21.62 292.97 34.68
  C 294.39 35.85 294.92 37.65 296.24 38.88
  C 305.38 47.37 313.87 54.20 323.82 64.08
  C 324.86 65.11 326.39 65.75 327.69 66.37
  A 0.43 0.43 0.0 0 0 328.17 65.68
  Q 313.96 52.02 299.64 40.05
  C 298.44 39.04 296.45 38.51 295.37 36.58
  A 0.25 0.25 0.0 0 1 295.67 36.22
  C 309.73 41.05 321.63 52.51 332.69 62.08
  C 334.49 63.64 337.03 64.85 338.91 66.86
  Q 339.04 67.00 339.23 67.00
  L 339.81 67.00
  Q 340.04 67.00 339.90 66.81
  Q 330.20 53.88 318.62 42.69
  C 310.87 35.20 300.60 28.11 291.51 20.88
  Q 285.44 16.06 277.74 10.45
  Q 270.76 5.37 263.97 0.00
  L 334.81 0.00
  C 338.07 0.43 343.68 -0.88 345.78 2.21
  Q 346.31 3.00 347.31 2.96
  Q 348.54 2.92 347.67 2.05
  L 346.31 0.68
  Q 346.05 0.42 346.39 0.28
  C 346.86 0.07 354.82 8.68 355.86 9.57
  C 366.74 18.90 378.38 28.57 390.74 35.86
  A 0.42 0.42 0.0 0 0 391.26 35.21
  C 387.44 31.13 382.84 25.54 377.99 22.81
  C 375.29 21.29 372.43 18.13 370.94 16.94
  C 366.29 13.22 361.99 9.65 356.96 5.98
  Q 353.60 3.53 351.19 0.00
  L 356.06 0.00
  Q 375.47 16.24 396.35 30.56
  Q 396.81 30.88 397.03 30.37
  C 397.87 28.45 395.89 26.45 394.42 24.97
  Q 394.07 24.62 394.38 24.24
  C 394.71 23.84 395.16 23.98 395.54 24.28
  Q 405.81 32.26 416.21 40.13
  C 417.75 41.29 419.17 41.29 419.47 39.05
  Q 419.59 38.21 420.21 38.79
  L 424.63 42.95
  Q 425.30 43.58 424.39 43.71
  L 423.96 43.77
  Q 423.50 43.83 423.53 44.29
  Q 423.60 45.91 425.07 45.96
  C 427.49 46.04 427.45 46.46 429.02 47.63
  C 442.21 57.58 453.86 71.04 468.66 82.00
  C 473.18 85.34 476.26 90.01 480.70 93.59
  Q 488.58 99.96 496.57 106.18
  Q 497.85 107.18 499.00 109.06
  L 499.00 323.64
  Q 482.10 308.44 469.41 294.84
  C 443.00 266.55 416.77 242.12 389.58 216.49
  C 384.57 211.77 378.84 206.92 373.52 202.03
  Q 373.31 201.84 373.29 202.12
  L 373.26 202.46
  Q 373.23 202.83 373.49 203.10
  Q 393.55 224.19 413.41 245.47
  C 426.16 259.13 439.77 272.15 452.78 285.67
  C 457.95 291.05 464.71 296.45 470.29 302.32
  C 476.59 308.93 481.12 313.55 486.69 319.05
  Q 486.85 319.20 486.78 319.41
  Q 486.73 319.56 486.68 319.70
  Q 486.59 319.98 486.39 319.78
  Q 474.04 307.53 461.63 295.38
  Q 459.55 293.34 455.55 293.51
  Q 455.03 293.54 454.68 293.16
  C 422.91 259.85 390.07 227.29 359.26 193.09
  C 337.28 168.69 314.04 146.31 288.23 125.81
  A 0.61 0.60 -70.9 0 0 287.25 126.29
  L 287.25 126.73
  Q 287.25 127.56 286.70 126.95
  C 277.36 116.55 266.62 106.98 254.70 99.60
  Q 254.44 99.44 254.34 99.73
  Q 254.29 99.88 254.24 100.02
  Q 254.16 100.29 254.37 100.47
  C 255.57 101.56 256.91 102.49 257.89 103.77
  C 263.64 111.29 270.99 116.36 276.81 123.09
  C 282.44 129.61 290.85 134.80 297.45 140.54
  Q 297.87 140.90 298.40 140.77
  L 299.49 140.49
  Q 299.95 140.38 300.27 140.72
  L 303.55 144.25
  Q 304.03 144.76 303.53 145.25
  Q 300.99 147.73 303.33 150.30
  Q 303.70 150.71 304.17 150.42
  L 304.64 150.14
  Q 304.87 150.00 304.78 149.74
  Q 304.32 148.35 303.25 147.50
  Q 301.85 146.39 303.61 146.70
  Q 306.23 147.15 307.66 149.41
  Q 308.02 149.97 307.35 149.99
  L 305.66 150.02
  Q 304.65 150.04 305.22 150.88
  L 308.46 155.67
  Q 308.73 156.08 309.21 155.97
  L 309.72 155.85
  Q 310.61 155.65 310.11 154.89
  Q 309.25 153.59 308.98 152.11
  Q 308.77 150.98 309.63 151.75
  C 321.80 162.75 332.95 175.61 343.89 186.49
  Q 372.98 215.38 400.76 245.54
  C 404.52 249.62 409.67 254.46 413.85 259.24
  C 415.79 261.45 419.65 264.82 421.82 268.47
  Q 422.44 269.50 421.42 268.86
  Q 418.34 266.90 415.65 264.39
  Q 415.26 264.02 414.73 263.94
  C 411.06 263.39 412.76 259.06 409.82 259.11
  Q 409.18 259.12 409.42 259.71
  Q 409.96 261.02 409.47 262.42
  Q 409.22 263.13 409.93 263.39
  L 412.01 264.14
  Q 412.54 264.33 412.91 264.75
  Q 414.99 267.14 417.11 269.51
  C 418.96 271.58 419.54 274.41 421.88 276.48
  Q 422.29 276.85 422.78 276.60
  C 426.73 274.59 428.99 283.20 430.57 285.13
  Q 437.03 293.02 444.44 300.06
  Q 466.68 321.18 488.28 342.96
  C 491.68 346.40 496.24 349.00 499.00 354.31
  L 499.00 356.06
  Q 498.51 357.93 497.01 357.76
  Q 496.50 357.70 496.27 357.25
  C 493.75 352.25 485.87 354.10 489.83 358.44
  Q 493.16 362.08 499.00 367.06
  L 499.00 384.56
  C 488.28 375.24 477.90 365.72 465.94 357.01
  A 0.75 0.75 0.0 0 0 464.78 357.83
  Q 465.25 359.42 466.74 361.02
  Q 480.99 376.38 495.76 391.24
  Q 497.54 393.03 499.00 395.06
  L 499.00 414.81
  L 498.42 414.74
  Q 497.93 414.68 497.63 414.29
  C 494.01 409.64 485.80 398.22 480.75 395.90
  Q 480.39 395.73 480.11 396.02
  Q 480.01 396.12 479.91 396.22
  Q 479.60 396.52 479.86 396.87
  C 484.42 403.09 488.04 410.09 492.86 415.88
  Q 495.93 419.56 499.00 423.20
  L 499.00 424.81
  C 498.42 424.75 485.90 413.51 484.96 412.56
  Q 474.32 401.65 463.41 391.00
  Q 463.38 390.98 463.36 391.01
  Q 463.28 391.11 463.13 391.22
  Q 462.86 391.44 463.09 391.70
  Q 467.93 397.21 472.91 402.59
  C 475.68 405.58 478.09 409.28 480.91 412.52
  C 483.70 415.72 484.64 419.75 486.66 422.83
  Q 490.86 429.25 499.00 438.81
  L 499.00 447.31
  Q 497.94 454.18 499.00 461.06
  L 499.00 464.56
  Q 497.40 464.76 496.31 463.43
  C 494.28 460.96 473.21 435.77 471.21 438.25
  A 0.50 0.50 0.0 0 0 471.18 438.83
  Q 474.49 443.97 478.44 448.56
  C 482.60 453.40 487.84 461.36 493.06 468.53
  Q 496.76 473.61 499.00 479.56
  L 499.00 500.00
  L 473.69 500.00
  Q 459.48 482.86 445.25 465.76
  Q 441.11 460.78 436.08 458.18
  C 435.17 457.71 433.83 456.38 433.19 455.64
  Q 399.87 417.18 366.24 378.99
  Q 353.92 365.00 346.68 357.57
  Q 291.61 301.06 237.56 243.57
  Q 230.40 235.97 223.69 229.16
  C 199.22 204.35 184.86 189.42 164.51 171.74
  C 138.60 149.23 110.32 125.37 81.08 102.12
  C 63.88 88.44 47.40 73.92 30.20 60.28
  Q 14.75 48.04 0.00 34.98
  L 0.00 0.00
  Z
  M 422.65 42.12
  Q 421.78 40.92 420.41 41.23
  Q 419.58 41.41 420.01 42.14
  Q 420.77 43.41 422.38 42.94
  A 0.53 0.52 63.7 0 0 422.65 42.12
  Z
  M 295.25 144.25
  A 0.47 0.46 -78.6 0 0 295.68 143.96
  Q 296.04 143.00 295.14 142.68
  A 0.66 0.66 0.0 0 0 294.27 143.20
  Q 294.11 144.24 295.25 144.25
  Z
  M 299.40 143.86
  Q 297.37 142.26 298.62 144.52
  Q 299.04 145.27 299.14 146.39
  Q 299.20 147.00 299.82 147.00
  L 300.46 147.00
  Q 301.21 147.00 301.00 146.28
  Q 300.59 144.80 299.40 143.86
  Z
  M 318.43 165.79
  Q 318.55 166.08 318.88 165.83
  A 0.41 0.40 67.1 0 0 319.04 165.42
  Q 318.68 163.51 316.84 162.96
  Q 315.75 162.63 316.25 163.65
  Q 316.87 164.94 318.15 165.51
  Q 318.34 165.60 318.43 165.79
  Z
  M 324.03 170.39
  A 0.75 0.73 62.9 0 0 323.32 170.15
  C 319.30 171.03 325.85 175.56 327.16 175.83
  A 0.73 0.73 0.0 0 0 327.84 174.63
  L 324.03 170.39
  Z
  M 356.43 204.32
  C 354.14 203.64 356.12 207.03 356.95 207.48
  Q 358.66 208.40 357.45 206.88
  Q 356.84 206.12 356.93 205.06
  Q 356.99 204.48 356.43 204.32
  Z
  M 367.47 230.28
  L 368.19 230.08
  Q 368.71 229.93 369.01 230.38
  C 369.83 231.58 371.59 233.87 372.63 231.93
  Q 372.90 231.43 372.52 231.00
  Q 371.36 229.67 369.67 229.86
  Q 369.12 229.92 369.07 229.38
  C 368.89 227.47 366.04 227.82 364.64 228.11
  Q 364.09 228.22 364.01 228.77
  Q 363.80 230.16 364.93 231.04
  Q 365.35 231.36 365.55 231.85
  C 366.05 233.02 366.79 235.20 367.76 234.70
  Q 368.33 234.41 368.12 233.81
  L 367.14 230.90
  Q 366.98 230.42 367.47 230.28
  Z
  M 386.73 235.20
  L 385.48 236.50
  A 0.54 0.54 0.0 0 0 385.49 237.26
  L 391.14 242.70
  A 2.30 1.41 43.9 0 0 393.78 243.27
  L 393.82 243.23
  A 2.30 1.41 43.9 0 0 393.14 240.62
  L 387.49 235.18
  A 0.54 0.54 0.0 0 0 386.73 235.20
  Z
  M 488.65 351.23
  L 492.62 350.03
  Q 492.75 349.99 492.75 349.85
  Q 492.75 349.67 492.75 349.49
  Q 492.74 348.97 492.22 349.00
  C 490.84 349.05 485.42 349.24 487.64 346.00
  Q 487.94 345.58 487.68 345.13
  C 486.44 342.93 483.80 345.47 482.57 346.32
  A 0.69 0.68 -61.1 0 0 482.93 347.57
  C 488.24 347.76 484.47 352.73 487.06 352.98
  Q 487.69 353.04 487.89 352.43
  L 488.14 351.72
  Q 488.27 351.34 488.65 351.23
  Z"
/>
<path fill="#D51313" d="
  M 374.52 0.00
  L 375.31 0.00
  L 376.05 0.79
  Q 376.54 1.33 375.85 1.55
  Q 374.15 2.09 374.52 0.00
  Z"
/>
<path fill="#D51313" d="
  M 397.31 0.00
  L 475.18 0.00
  Q 485.95 12.11 498.41 22.58
  Q 499.66 23.62 498.06 23.32
  Q 497.86 23.28 497.65 23.25
  Q 496.98 23.17 497.10 23.83
  L 499.00 35.06
  L 499.00 103.56
  L 498.69 103.67
  Q 498.32 103.79 498.05 103.51
  C 480.70 85.42 462.43 68.02 444.38 50.62
  C 443.06 49.35 442.07 47.52 440.76 46.22
  C 425.68 31.25 411.14 18.60 395.95 1.23
  Q 395.58 0.80 396.00 0.43
  Q 396.53 -0.03 397.31 0.00
  Z"
/>
<path fill="#D51313" d="
  M 21.17 1.53
  Q 20.43 1.32 20.18 0.61
  Q 19.97 0.00 20.59 0.19
  Q 21.25 0.39 21.56 1.09
  Q 21.85 1.73 21.17 1.53
  Z"
/>
<path fill="#D51313" d="
  M 383.94 8.31
  Q 383.27 8.22 383.23 7.58
  Q 383.18 6.81 383.76 7.32
  L 385.84 9.17
  Q 386.85 10.07 385.58 9.60
  Q 384.49 9.20 383.94 8.31
  Z"
/>
<path fill="#D51313" d="
  M 390.67 12.33
  Q 391.39 12.82 390.80 13.36
  Q 390.30 13.82 390.05 13.19
  Q 389.89 12.78 390.14 12.43
  Q 390.36 12.13 390.67 12.33
  Z"
/>
<ellipse fill="#D51313" cx="0.00" cy="0.00" transform="translate(397.05,18.51) rotate(37.1)" rx="3.43" ry="0.59"/>
<rect fill="#D51313" x="-8.60" y="-0.47" transform="translate(412.14,30.83) rotate(40.7)" width="17.20" height="0.94" rx="0.27"/>
<path fill="#D51313" d="
  M 423.47 270.19
  Q 423.52 269.88 423.74 270.10
  L 425.49 271.89
  Q 426.42 272.84 425.09 272.83
  Q 423.01 272.81 423.47 270.19
  Z"
/>
</svg>
