<?xml version="1.0" encoding="UTF-8" standalone="no"?>
<!DOCTYPE svg PUBLIC "-//W3C//DTD SVG 1.1//EN" "http://www.w3.org/Graphics/SVG/1.1/DTD/svg11.dtd">
<svg xmlns="http://www.w3.org/2000/svg" version="1.1" viewBox="0.00 0.00 587.00 425.00">
<ellipse fill="#D51313" cx="0.00" cy="0.00" transform="translate(485.90,86.69) rotate(-0.8)" rx="7.64" ry="0.70"/>
<path fill="#D51313" d="
  M 458.65 91.11
  C 461.01 88.23 478.55 88.87 480.00 88.86
  Q 480.69 88.86 480.49 89.52
  Q 480.45 89.65 480.41 89.78
  Q 480.35 89.98 480.14 89.99
  C 475.36 90.12 471.78 90.25 466.45 91.28
  Q 462.89 91.97 459.02 91.90
  Q 458.02 91.89 458.65 91.11
  Z"
/>
<path fill="#D51313" d="
  M 447.42 92.96
  Q 449.57 93.30 451.42 92.31
  Q 451.86 92.07 452.35 92.05
  L 457.58 91.87
  A 0.38 0.38 0.0 0 1 457.72 92.61
  C 452.17 94.63 446.59 94.59 440.91 95.90
  Q 434.34 97.42 427.51 96.92
  Q 427.18 96.89 427.22 96.57
  C 427.25 96.31 427.39 96.22 427.65 96.21
  Q 432.80 95.98 437.50 93.63
  A 0.36 0.36 0.0 0 0 437.32 92.95
  C 434.15 93.13 431.22 94.45 428.00 94.05
  Q 426.72 93.89 427.96 93.54
  Q 435.43 91.40 443.06 92.77
  C 443.98 92.93 444.71 92.73 445.08 91.88
  Q 445.27 91.44 445.75 91.38
  Q 448.79 90.97 451.70 89.97
  Q 452.14 89.82 452.48 90.15
  L 452.69 90.36
  Q 452.90 90.57 452.62 90.66
  L 447.38 92.29
  A 0.35 0.34 -48.9 0 0 447.42 92.96
  Z"
/>
<path fill="#D51313" d="
  M 87.50 312.00
  Q 88.11 311.17 89.36 310.12
  Q 110.74 292.27 134.88 279.75
  Q 135.32 279.52 135.41 279.02
  C 135.88 276.27 155.48 265.51 158.10 266.41
  Q 158.54 266.55 158.97 266.39
  Q 162.95 264.87 165.96 261.86
  Q 166.32 261.50 166.83 261.50
  L 167.19 261.50
  Q 167.60 261.50 167.93 261.26
  L 171.53 258.69
  Q 171.85 258.46 171.57 258.19
  Q 171.48 258.10 171.38 258.00
  Q 171.29 257.91 171.18 257.96
  C 168.67 259.01 166.54 260.47 163.93 261.43
  C 162.19 262.06 156.49 265.61 154.86 264.54
  Q 154.44 264.26 154.18 264.69
  L 153.76 265.38
  Q 153.47 265.87 152.90 265.88
  Q 150.52 265.93 148.78 267.49
  Q 148.16 268.04 148.41 267.25
  C 148.87 265.74 153.31 263.83 154.76 263.09
  C 157.13 261.88 158.35 259.64 161.25 258.80
  C 162.28 258.50 162.79 257.50 161.03 257.25
  A 0.61 0.57 34.3 0 0 160.71 257.30
  L 143.50 265.52
  Q 143.18 265.68 143.36 265.99
  L 143.51 266.24
  Q 143.77 266.68 143.26 266.74
  Q 141.94 266.88 141.28 265.83
  Q 140.91 265.23 141.58 265.02
  Q 145.83 263.70 149.29 261.12
  C 152.24 258.92 154.94 257.74 157.84 255.94
  A 0.43 0.43 0.0 0 0 157.44 255.18
  C 153.67 256.79 150.70 259.10 146.83 260.54
  C 142.63 262.10 138.86 264.88 135.21 266.53
  Q 125.02 271.13 115.38 276.78
  Q 114.92 277.05 114.97 276.52
  C 115.15 274.82 159.31 252.39 164.36 248.53
  Q 164.75 248.24 165.24 248.22
  Q 167.00 248.14 168.08 246.79
  Q 168.41 246.36 168.95 246.28
  C 171.72 245.83 173.37 243.14 175.76 242.95
  Q 178.32 242.74 179.11 241.11
  Q 179.34 240.62 179.82 240.37
  L 181.52 239.45
  Q 181.99 239.20 182.33 239.60
  Q 182.85 240.20 183.74 239.85
  Q 184.84 239.42 183.71 239.06
  L 181.29 238.29
  Q 180.77 238.12 180.32 238.44
  C 176.57 241.13 172.85 241.31 168.89 243.19
  C 167.62 243.79 164.75 245.28 163.39 244.67
  Q 162.74 244.38 163.39 244.08
  Q 168.78 241.57 173.84 238.51
  C 176.02 237.20 178.60 236.76 180.93 235.43
  Q 188.12 231.31 195.58 227.73
  Q 195.87 227.59 195.77 227.29
  Q 195.71 227.14 195.66 226.98
  Q 195.59 226.76 195.38 226.85
  C 194.44 227.25 190.15 229.65 189.56 228.71
  Q 189.33 228.35 189.71 228.14
  C 191.24 227.31 193.11 225.49 194.98 226.04
  C 198.50 227.09 201.32 226.99 203.39 223.57
  Q 203.66 223.13 204.18 223.07
  C 209.73 222.49 215.59 219.06 220.27 216.12
  C 221.54 215.32 223.13 215.11 224.46 214.20
  Q 224.94 213.87 224.67 213.35
  C 224.09 212.20 217.58 215.22 216.48 215.74
  A 0.43 0.42 -71.7 0 1 216.10 214.98
  L 222.96 211.26
  Q 223.32 211.06 223.21 210.67
  C 222.71 208.79 212.29 212.81 210.87 213.43
  Q 210.41 213.63 209.93 213.50
  L 208.86 213.22
  Q 208.18 213.04 208.40 213.71
  L 208.59 214.28
  Q 208.80 214.89 208.21 215.14
  L 190.84 222.71
  Q 190.11 223.02 190.45 222.30
  L 190.78 221.59
  A 0.62 0.62 0.0 0 0 189.95 220.77
  L 169.56 230.56
  Q 169.08 230.79 169.01 230.26
  C 168.38 225.18 140.91 243.08 139.25 240.88
  A 0.53 0.53 0.0 0 1 139.50 240.06
  C 142.41 239.05 143.87 237.41 147.03 236.94
  Q 147.53 236.86 147.95 236.57
  Q 155.84 231.09 164.71 227.32
  A 0.55 0.54 47.6 0 0 164.75 226.34
  Q 163.52 225.66 162.67 226.80
  Q 162.37 227.21 161.88 227.36
  Q 156.52 229.04 151.26 231.03
  C 150.29 231.39 148.62 232.94 147.80 232.75
  Q 147.28 232.64 147.53 232.17
  Q 148.05 231.18 149.16 231.24
  Q 149.59 231.26 149.73 230.84
  Q 149.78 230.67 149.74 230.45
  A 0.48 0.47 72.7 0 0 149.07 230.09
  Q 134.89 236.60 121.43 244.35
  C 118.22 246.19 114.23 246.87 110.92 249.51
  C 110.62 249.74 110.45 249.88 110.17 249.56
  Q 109.95 249.32 110.22 249.14
  L 122.52 240.90
  Q 122.95 240.61 123.45 240.78
  C 125.86 241.65 126.72 239.67 127.13 237.67
  Q 127.26 237.08 127.77 237.39
  Q 129.15 238.22 130.40 237.26
  A 1.42 1.42 0.0 0 0 130.01 234.79
  C 124.87 232.97 115.37 239.86 110.60 242.20
  C 108.38 243.29 106.22 245.23 103.50 246.00
  C 111.70 240.02 121.04 235.73 129.28 230.91
  Q 134.70 227.73 140.29 224.86
  C 142.50 223.72 144.18 221.95 146.37 221.03
  Q 151.13 219.03 155.79 216.66
  A 0.32 0.32 0.0 0 0 155.72 216.06
  Q 155.12 215.90 154.59 216.14
  Q 137.38 223.62 120.66 232.16
  C 119.73 232.64 119.28 232.58 118.31 232.31
  Q 117.75 232.15 117.82 232.72
  C 118.08 234.81 109.30 238.23 107.35 238.87
  Q 100.67 241.09 94.85 245.14
  Q 94.40 245.45 94.24 244.93
  C 93.97 244.08 102.90 239.16 103.92 237.55
  Q 104.58 236.50 103.51 237.12
  Q 101.28 238.42 98.90 237.59
  Q 98.38 237.41 97.89 237.65
  Q 92.48 240.26 87.51 243.67
  Q 87.30 243.81 87.18 243.59
  L 87.05 243.34
  Q 87.00 243.24 87.09 243.18
  C 104.86 230.85 123.66 221.38 140.24 212.16
  C 141.95 211.21 144.57 210.50 146.50 209.09
  Q 146.98 208.74 146.62 208.27
  C 146.04 207.50 142.68 209.63 141.92 210.03
  Q 141.46 210.28 141.49 209.76
  Q 141.50 209.61 141.50 209.47
  Q 141.50 209.33 141.63 209.25
  C 143.61 208.11 154.38 202.56 154.89 201.21
  A 0.53 0.53 0.0 0 0 154.18 200.53
  L 131.75 210.58
  A 1.81 1.81 0.0 0 1 129.97 210.41
  C 127.97 209.00 126.12 210.94 124.26 211.03
  A 0.40 0.40 0.0 0 1 124.09 210.26
  C 129.75 207.98 134.12 205.04 139.20 202.02
  C 141.99 200.35 146.54 199.01 149.72 196.60
  Q 152.13 194.78 154.07 193.98
  Q 160.35 191.41 166.36 188.24
  Q 166.85 187.98 166.61 187.48
  L 166.46 187.19
  Q 166.19 186.63 166.75 186.35
  Q 185.75 176.83 196.70 172.20
  Q 260.43 145.27 311.70 128.22
  C 354.48 114.00 390.88 105.55 431.73 98.64
  Q 451.34 95.32 468.68 94.13
  C 477.61 93.52 485.83 92.56 494.14 92.43
  C 497.31 92.38 525.02 91.08 525.63 91.78
  A 0.57 0.57 0.0 0 1 525.25 92.72
  L 510.54 94.05
  A 0.53 0.52 49.7 0 0 510.46 95.08
  Q 520.31 97.71 530.42 98.11
  C 533.83 98.24 537.01 100.78 539.80 102.50
  A 0.82 0.82 0.0 0 1 539.39 104.02
  L 531.57 104.18
  Q 531.24 104.19 531.25 104.51
  Q 531.25 104.65 531.25 104.78
  Q 531.25 105.37 531.82 105.24
  Q 532.21 105.15 532.42 105.39
  Q 532.69 105.69 532.29 105.71
  L 521.35 106.02
  Q 518.44 106.11 521.25 106.86
  C 523.59 107.48 538.20 110.25 538.69 111.37
  Q 538.99 112.05 538.25 112.04
  C 535.18 111.98 532.78 111.10 529.78 112.07
  C 526.22 113.22 522.79 114.16 519.27 115.44
  Q 516.76 116.35 513.99 115.86
  Q 513.48 115.77 513.32 116.27
  Q 513.28 116.42 513.24 116.56
  Q 513.12 116.94 513.52 117.02
  C 520.30 118.36 527.11 118.48 533.97 119.33
  A 0.81 0.79 -6.6 0 1 534.62 119.83
  C 535.28 121.57 534.60 122.73 532.70 122.73
  C 527.37 122.74 521.38 122.24 516.17 123.25
  Q 513.78 123.72 511.38 124.16
  A 0.39 0.39 0.0 0 0 511.41 124.94
  Q 514.94 125.32 518.51 125.83
  C 520.18 126.06 522.71 125.63 524.71 126.87
  Q 525.46 127.34 524.66 127.73
  Q 523.13 128.46 522.32 129.96
  Q 522.09 130.38 521.64 130.56
  Q 516.37 132.69 510.73 132.87
  Q 510.36 132.88 510.31 133.25
  L 510.26 133.59
  Q 510.21 133.97 510.59 133.97
  L 514.25 134.05
  Q 515.22 134.07 514.67 134.86
  C 513.07 137.13 508.38 137.00 508.33 137.13
  Q 508.15 137.58 508.60 137.77
  C 516.49 140.98 526.03 137.77 534.32 138.01
  Q 535.09 138.04 534.58 138.61
  Q 532.72 140.70 529.57 140.37
  C 523.42 139.72 513.12 141.48 507.31 141.98
  Q 501.94 142.43 496.45 142.94
  A 0.40 0.40 0.0 0 0 496.43 143.74
  Q 509.67 145.60 523.36 144.73
  C 524.30 144.67 526.05 143.98 527.37 144.34
  Q 528.97 144.77 527.32 144.92
  Q 524.29 145.20 522.34 147.45
  Q 521.96 147.89 521.40 147.92
  C 520.30 147.98 513.46 147.75 513.26 148.45
  Q 513.14 148.86 513.56 148.90
  L 522.97 149.80
  A 0.66 0.66 0.0 0 1 522.85 151.11
  L 511.45 150.23
  Q 511.12 150.20 510.92 150.47
  L 510.76 150.70
  Q 510.37 151.23 510.93 151.57
  C 515.25 154.23 520.53 151.89 525.27 154.23
  C 529.92 156.53 534.14 156.41 538.70 157.21
  A 0.45 0.44 45.2 0 1 538.70 158.09
  L 524.61 160.41
  Q 524.15 160.49 523.92 160.90
  L 523.20 162.18
  Q 522.81 162.88 523.61 162.95
  C 525.37 163.12 534.38 161.44 534.97 163.17
  Q 535.15 163.70 534.60 163.75
  L 530.15 164.11
  Q 529.62 164.15 529.32 164.58
  L 528.78 165.33
  Q 528.45 165.78 527.89 165.70
  Q 518.64 164.37 509.29 165.19
  A 0.47 0.46 50.8 0 0 509.20 166.10
  C 510.85 166.59 518.42 166.27 518.44 166.30
  Q 518.73 166.59 518.52 166.95
  L 518.01 167.81
  Q 517.59 168.53 518.37 168.80
  Q 522.98 170.37 527.83 169.97
  A 0.66 0.66 0.0 0 1 528.55 170.68
  L 528.50 171.35
  Q 528.45 172.00 529.10 172.00
  L 533.24 172.00
  Q 534.02 172.00 533.69 172.71
  Q 532.87 174.53 531.25 174.79
  Q 522.63 176.16 516.52 178.23
  Q 514.93 178.77 516.60 178.97
  L 526.45 180.13
  Q 527.78 180.29 526.46 180.52
  Q 520.16 181.61 513.84 181.32
  C 512.76 181.27 504.32 181.49 504.31 182.56
  Q 504.31 183.05 504.79 183.02
  Q 510.58 182.76 516.19 184.14
  Q 516.76 184.28 516.63 184.85
  C 516.37 186.01 514.25 185.76 513.46 186.16
  Q 512.47 186.66 513.56 186.85
  L 522.25 188.34
  Q 522.63 188.41 522.61 188.80
  C 522.57 189.74 515.44 188.95 514.16 189.06
  A 0.84 0.84 0.0 0 0 513.70 190.55
  C 517.76 193.88 529.17 191.41 534.64 192.32
  A 0.29 0.29 0.0 0 1 534.65 192.89
  C 523.51 195.08 511.12 194.69 499.48 199.16
  A 0.46 0.45 -58.0 0 0 499.68 200.04
  C 503.37 199.72 506.97 200.92 510.12 201.17
  Q 514.25 201.48 518.32 202.19
  Q 520.64 202.60 518.29 202.65
  Q 512.35 202.79 506.46 203.00
  C 503.18 203.11 500.87 202.87 497.56 203.90
  A 0.56 0.56 0.0 0 0 497.72 205.00
  L 502.95 205.00
  A 1.11 1.11 0.0 0 1 503.65 206.97
  Q 501.00 209.10 497.60 209.04
  A 0.40 0.39 -23.8 0 0 497.33 209.73
  L 498.12 210.41
  Q 498.66 210.88 498.09 211.30
  Q 496.76 212.27 495.00 211.94
  Q 494.61 211.87 494.41 212.21
  L 494.27 212.44
  A 0.44 0.44 0.0 0 0 494.65 213.10
  L 509.09 212.99
  Q 509.71 212.98 509.68 213.60
  C 509.64 214.35 487.64 214.06 487.92 216.43
  Q 487.96 216.80 488.34 216.81
  L 504.53 217.08
  A 0.35 0.35 0.0 0 1 504.70 217.73
  Q 502.26 219.13 499.44 219.09
  Q 494.17 219.02 499.17 219.86
  Q 501.06 220.18 502.95 220.00
  Q 503.40 219.96 503.46 220.41
  L 503.50 220.69
  Q 503.58 221.23 503.04 221.16
  L 496.80 220.30
  Q 496.17 220.21 496.31 220.84
  C 496.63 222.27 501.23 222.13 502.37 222.05
  Q 502.91 222.01 503.39 222.25
  Q 507.10 224.08 511.24 224.04
  A 0.82 0.81 -84.3 0 1 512.04 225.03
  C 511.56 227.29 504.02 224.63 503.95 227.91
  Q 503.95 228.32 504.35 228.29
  L 510.42 227.89
  A 0.48 0.48 0.0 0 1 510.62 228.82
  C 506.98 230.20 503.27 229.29 500.31 230.68
  A 0.77 0.77 0.0 0 0 500.47 232.13
  L 509.42 234.10
  A 0.64 0.64 0.0 0 1 509.49 235.33
  C 507.77 235.92 500.70 237.14 500.30 238.26
  Q 500.08 238.86 500.72 238.94
  L 503.47 239.28
  Q 503.78 239.32 503.71 239.62
  C 503.53 240.37 495.97 239.91 494.95 239.83
  Q 494.57 239.80 494.31 240.07
  L 494.11 240.27
  Q 493.68 240.70 494.27 240.82
  L 498.11 241.57
  Q 499.02 241.75 498.87 242.67
  Q 498.39 245.49 495.51 244.93
  Q 493.25 244.49 495.33 245.90
  C 496.05 246.38 497.81 245.99 498.85 246.29
  C 501.82 247.14 506.46 246.26 508.55 247.12
  Q 509.12 247.35 508.55 247.59
  C 505.63 248.81 499.35 247.95 495.63 248.70
  C 489.33 249.96 485.06 250.34 479.58 250.93
  C 474.98 251.44 467.84 251.50 461.99 252.69
  Q 432.55 258.73 418.08 263.13
  C 405.68 266.90 393.34 271.14 380.71 274.03
  Q 376.40 275.02 372.48 277.09
  C 367.91 279.49 362.44 280.12 358.52 281.96
  Q 352.15 284.94 345.37 287.93
  A 0.32 0.32 0.0 0 1 345.01 287.42
  C 347.85 284.32 354.01 281.96 358.14 280.43
  Q 362.57 278.79 366.88 276.65
  A 0.31 0.31 0.0 0 0 366.81 276.07
  Q 366.35 275.97 366.03 276.08
  Q 352.87 280.72 339.77 285.56
  Q 339.25 285.75 337.79 285.37
  Q 337.22 285.22 336.67 285.44
  L 318.60 292.63
  Q 318.17 292.80 318.30 292.36
  C 318.65 291.14 354.49 276.91 358.42 275.39
  C 360.01 274.77 366.45 272.34 366.86 270.73
  A 0.54 0.54 0.0 0 0 366.19 270.08
  C 357.72 272.63 349.49 275.15 341.20 278.58
  C 315.19 289.32 295.34 297.86 271.49 310.29
  C 270.34 310.89 269.57 310.72 268.59 310.01
  Q 268.11 309.65 268.46 309.17
  Q 269.13 308.25 270.31 308.23
  Q 270.89 308.22 271.03 307.66
  C 271.28 306.68 271.60 307.24 272.04 307.10
  Q 275.16 306.04 277.60 303.91
  Q 279.11 302.58 277.28 303.41
  Q 258.76 311.81 242.29 323.71
  A 0.20 0.20 0.0 0 1 242.02 323.41
  C 245.58 319.24 251.00 316.05 254.24 313.47
  C 256.00 312.06 263.80 307.92 261.63 305.25
  Q 261.25 304.77 260.70 305.06
  L 234.60 318.88
  Q 232.52 319.98 234.34 318.50
  Q 245.85 309.16 260.03 301.55
  Q 262.11 300.43 265.14 297.98
  Q 269.89 294.14 275.97 292.60
  Q 277.87 292.12 278.88 290.71
  A 0.33 0.33 0.0 0 0 278.49 290.21
  L 270.15 293.34
  Q 269.59 293.55 269.65 292.96
  C 269.74 292.08 275.88 290.55 275.76 288.36
  Q 275.71 287.50 274.94 287.90
  L 267.96 291.54
  Q 267.33 291.87 267.53 291.18
  Q 267.62 290.88 267.82 290.60
  Q 268.07 290.25 268.50 290.25
  L 269.32 290.25
  Q 270.99 290.25 269.64 289.26
  L 269.33 289.03
  Q 268.79 288.63 268.47 289.22
  Q 267.95 290.18 266.74 290.17
  Q 266.26 290.16 265.84 290.38
  L 253.71 296.71
  Q 253.07 297.05 253.13 296.33
  C 253.19 295.48 282.76 280.52 286.34 278.31
  Q 286.76 278.05 286.63 277.57
  C 286.35 276.55 283.43 278.17 282.18 277.95
  Q 281.48 277.82 282.00 277.34
  C 284.04 275.42 286.72 275.27 288.81 274.00
  Q 291.26 272.52 293.89 271.42
  Q 294.41 271.20 294.65 270.70
  L 295.40 269.19
  Q 295.61 268.78 296.06 268.72
  L 301.63 267.95
  Q 302.17 267.88 302.51 267.47
  C 303.75 265.96 305.37 266.00 306.75 265.34
  Q 311.09 263.25 315.18 260.70
  Q 316.06 260.15 315.03 260.01
  L 314.56 259.95
  Q 224.46 247.85 314.78 259.25
  Q 315.66 259.36 315.99 258.81
  Q 316.33 258.24 315.72 258.00
  C 313.48 257.09 304.08 261.80 301.47 262.90
  Q 299.26 263.83 293.74 265.43
  C 289.81 266.56 285.52 269.95 281.50 269.92
  C 277.31 269.88 274.42 272.91 270.52 273.94
  Q 269.72 274.15 270.05 273.39
  C 270.42 272.56 273.62 271.25 274.53 270.83
  Q 275.03 270.59 274.70 270.14
  L 274.55 269.93
  Q 274.28 269.56 273.87 269.77
  C 270.62 271.44 267.25 271.41 264.26 272.88
  Q 256.48 276.72 248.85 280.85
  Q 248.54 281.02 248.33 280.73
  Q 248.22 280.59 248.13 280.51
  Q 247.89 280.33 248.13 280.15
  C 251.08 277.98 254.10 276.77 256.84 274.32
  Q 257.39 273.82 256.79 273.38
  Q 255.76 272.60 254.57 273.21
  Q 254.16 273.43 254.08 272.97
  C 253.90 271.87 266.27 266.60 265.70 265.34
  A 0.60 0.60 0.0 0 0 264.90 265.04
  C 262.63 266.14 238.07 278.54 237.69 277.74
  Q 237.68 277.72 237.83 277.59
  L 239.67 275.98
  Q 240.25 275.46 239.52 275.19
  C 236.99 274.27 233.01 278.25 232.26 277.66
  Q 231.89 277.36 232.28 277.09
  C 242.80 269.77 254.82 263.76 265.76 257.58
  Q 266.15 257.36 266.25 256.93
  C 266.39 256.29 270.68 253.66 271.40 253.02
  A 0.38 0.38 0.0 0 0 270.98 252.40
  Q 263.56 256.18 255.55 258.44
  A 0.48 0.47 21.3 0 1 255.17 257.58
  Q 257.65 256.10 259.83 254.31
  C 261.18 253.20 262.99 252.78 264.51 251.89
  Q 264.79 251.73 264.75 251.41
  L 264.71 251.12
  Q 264.66 250.77 264.33 250.91
  C 261.54 252.15 259.24 253.39 256.12 254.21
  C 251.51 255.41 248.09 257.88 242.93 259.61
  C 237.05 261.59 231.79 264.52 225.71 266.24
  C 224.91 266.47 224.36 267.06 223.75 267.57
  Q 223.27 267.97 223.25 267.35
  C 223.21 265.23 280.34 242.40 286.30 240.05
  C 292.29 237.68 298.46 234.11 304.26 231.17
  C 309.20 228.66 315.19 226.90 320.30 225.03
  Q 320.74 224.88 320.76 224.42
  Q 320.77 224.29 320.73 224.17
  Q 320.64 223.87 320.34 223.97
  Q 312.30 226.72 304.23 229.37
  C 294.97 232.41 280.02 236.49 268.17 241.40
  C 224.34 259.55 193.22 272.66 155.42 292.40
  Q 155.38 292.42 149.90 295.60
  Q 146.67 297.48 143.02 298.84
  Q 139.96 299.97 142.79 298.35
  L 150.61 293.86
  A 0.53 0.53 0.0 0 0 150.27 292.88
  Q 145.98 293.55 142.53 296.09
  Q 141.94 296.52 141.99 295.79
  Q 142.01 295.55 141.99 295.38
  Q 141.97 295.01 142.29 294.83
  L 168.69 280.59
  Q 169.82 279.99 168.54 279.96
  Q 167.13 279.92 165.32 280.83
  C 142.93 292.06 119.88 303.80 100.90 319.50
  C 100.66 319.71 100.46 319.90 100.21 319.59
  Q 100.04 319.38 100.23 319.20
  L 117.04 303.98
  Q 117.36 303.69 117.79 303.62
  C 122.43 302.85 123.13 299.33 126.14 297.45
  Q 130.79 294.53 135.27 291.39
  C 136.96 290.21 137.33 288.57 138.51 286.95
  Q 138.84 286.51 138.53 286.05
  L 137.92 285.15
  Q 137.56 284.61 136.98 284.91
  C 120.31 293.49 103.15 301.66 87.50 312.00
  Z
  M 485.86 144.07
  Q 486.11 143.72 485.95 143.31
  Q 485.70 142.68 485.20 143.14
  Q 484.61 143.68 485.33 144.17
  Q 485.64 144.37 485.86 144.07
  Z
  M 500.25 165.94
  L 496.71 166.01
  Q 494.29 166.06 496.65 166.59
  Q 498.90 167.10 500.42 166.64
  Q 502.90 165.88 500.25 165.94
  Z
  M 228.57 208.24
  Q 226.10 208.49 224.32 210.04
  Q 222.93 211.26 224.69 210.69
  Q 226.87 209.99 228.77 208.87
  Q 230.10 208.09 228.57 208.24
  Z
  M 122.6778 225.4433
  A 0.45 0.45 0.0 0 0 122.0637 225.2764
  L 117.4992 227.8905
  A 0.45 0.45 0.0 0 0 117.3324 228.5046
  L 117.3622 228.5567
  A 0.45 0.45 0.0 0 0 117.9763 228.7236
  L 122.5408 226.1095
  A 0.45 0.45 0.0 0 0 122.7076 225.4954
  L 122.6778 225.4433
  Z
  M 496.40 230.00
  A 0.49 0.49 0.0 0 0 496.50 230.95
  L 498.67 231.25
  Q 499.94 231.43 498.99 230.56
  Q 497.81 229.47 496.40 230.00
  Z
  M 134.64 231.87
  L 134.76 231.30
  A 0.31 0.31 0.0 0 0 134.36 230.94
  L 133.30 231.29
  A 0.49 0.49 0.0 0 0 133.45 232.25
  L 134.16 232.25
  Q 134.56 232.25 134.64 231.87
  Z
  M 103.51 235.26
  L 104.04 235.19
  Q 104.56 235.11 104.79 235.59
  L 105.27 236.56
  Q 105.56 237.15 106.19 236.96
  Q 108.44 236.31 109.47 234.32
  Q 109.67 233.95 109.58 233.53
  L 109.31 232.25
  Q 109.15 231.45 108.42 231.82
  L 102.55 234.77
  Q 101.89 235.10 102.39 235.64
  C 102.61 235.88 103.15 235.84 103.27 235.46
  Q 103.33 235.28 103.51 235.26
  Z
  M 131.3568 233.2061
  A 0.64 0.51 105.7 0 0 132.0210 232.7280
  A 0.64 0.51 105.7 0 0 131.7032 231.9739
  A 0.64 0.51 105.7 0 0 131.0390 232.4520
  A 0.64 0.51 105.7 0 0 131.3568 233.2061
  Z
  M 134.07 234.31
  L 134.65 233.72
  A 0.31 0.30 -78.0 0 0 134.33 233.22
  Q 133.27 233.65 133.23 234.73
  Q 133.22 235.00 133.49 235.00
  Q 133.62 235.00 133.75 235.00
  Q 134.00 235.00 134.00 234.75
  Q 134.00 234.61 134.00 234.48
  Q 134.00 234.38 134.07 234.31
  Z
  M 190.9486 234.4309
  A 3.74 0.67 -24.3 0 0 187.2643 235.3594
  A 3.74 0.67 -24.3 0 0 184.1314 237.5091
  A 3.74 0.67 -24.3 0 0 187.8157 236.5806
  A 3.74 0.67 -24.3 0 0 190.9486 234.4309
  Z
  M 175.6113 251.2663
  A 1.34 0.77 -33.2 0 0 174.0684 251.3557
  A 1.34 0.77 -33.2 0 0 173.3687 252.7337
  A 1.34 0.77 -33.2 0 0 174.9116 252.6443
  A 1.34 0.77 -33.2 0 0 175.6113 251.2663
  Z
  M 167.46 255.34
  Q 168.58 255.43 168.89 254.37
  Q 169.22 253.26 168.20 253.80
  L 164.16 255.91
  Q 162.69 256.69 164.35 256.69
  Q 165.76 256.69 166.66 255.67
  Q 166.97 255.30 167.46 255.34
  Z
  M 178.74 255.13
  Q 178.44 255.69 179.07 255.67
  Q 180.50 255.62 181.71 254.82
  Q 182.49 254.30 181.58 254.06
  Q 179.62 253.53 178.74 255.13
  Z
  M 375.54 267.02
  C 375.10 266.92 374.39 266.92 374.25 267.50
  Q 374.09 268.16 374.76 268.01
  L 375.53 267.84
  A 0.42 0.42 0.0 0 0 375.54 267.02
  Z
  M 152.79 269.98
  Q 154.92 268.30 152.21 269.41
  Q 151.97 269.51 152.15 269.69
  L 152.41 269.95
  Q 152.59 270.14 152.79 269.98
  Z
  M 368.27 269.50
  Q 368.23 269.69 368.24 269.90
  A 0.50 0.50 0.0 0 0 369.06 270.26
  L 369.64 269.75
  A 0.44 0.44 0.0 0 0 369.30 268.98
  L 368.72 269.06
  Q 368.34 269.12 368.27 269.50
  Z
  M 243.94 273.41
  A 0.50 0.49 47.1 0 0 243.97 272.51
  Q 242.44 271.75 241.44 273.25
  A 0.61 0.61 0.0 0 0 242.18 274.15
  L 243.94 273.41
  Z
  M 136.24 278.36
  Q 136.28 278.67 136.06 278.81
  Q 135.02 279.48 136.32 279.21
  Q 137.93 278.88 138.93 277.59
  Q 139.27 277.15 139.81 277.04
  Q 142.05 276.58 143.53 274.87
  A 0.34 0.34 0.0 0 0 143.12 274.35
  L 136.58 277.70
  Q 136.17 277.91 136.24 278.36
  Z
  M 175.77 275.95
  Q 174.43 276.11 173.44 276.89
  Q 173.07 277.18 172.62 277.26
  Q 171.67 277.43 171.18 278.28
  Q 170.81 278.92 171.55 278.81
  Q 174.12 278.44 176.08 276.61
  Q 176.94 275.81 175.77 275.95
  Z
  M 149.09 279.53
  C 149.76 279.22 152.87 278.10 152.73 277.28
  Q 152.63 276.66 152.07 276.94
  L 146.39 279.81
  A 0.62 0.61 34.4 0 0 146.61 280.97
  Q 147.69 281.07 148.35 280.13
  Q 148.64 279.73 149.09 279.53
  Z
  M 138.61 285.05
  Q 139.43 285.74 140.50 284.15
  Q 140.84 283.64 140.27 283.43
  Q 139.85 283.28 138.60 284.39
  Q 138.22 284.72 138.61 285.05
  Z
  M 280.33 290.05
  Q 282.06 289.93 282.96 288.61
  Q 283.75 287.45 282.52 288.11
  L 280.14 289.37
  Q 278.66 290.16 280.33 290.05
  Z
  M 152.03 291.77
  Q 153.21 291.91 154.01 290.30
  A 0.22 0.22 0.0 0 0 153.66 290.04
  Q 152.85 290.77 151.94 291.21
  Q 151.03 291.65 152.03 291.77
  Z"
/>
<path fill="#D51313" d="
  M 413.90 96.04
  Q 414.11 95.97 414.48 96.06
  A 0.37 0.37 0.0 0 1 414.52 96.76
  L 413.72 97.06
  A 0.40 0.39 12.4 0 1 413.30 96.41
  L 413.48 96.23
  Q 413.55 96.16 413.90 96.04
  Z"
/>
<path fill="#D51313" d="
  M 382.07 106.58
  C 379.83 106.93 368.72 110.57 367.52 109.91
  Q 366.79 109.50 367.60 109.30
  C 371.18 108.40 374.74 107.24 378.23 106.47
  Q 400.21 101.63 422.32 97.45
  Q 422.86 97.34 422.70 97.87
  C 422.26 99.29 385.62 106.02 382.07 106.58
  Z"
/>
<path fill="#D51313" d="
  M 337.31 118.52
  C 334.70 119.19 331.64 120.46 328.71 121.16
  Q 328.22 121.28 328.24 120.77
  Q 328.25 120.62 328.25 120.48
  Q 328.25 120.33 328.40 120.28
  Q 342.90 115.99 357.52 112.07
  Q 358.14 111.91 358.74 112.02
  Q 359.53 112.17 358.79 112.47
  C 352.15 115.12 344.28 116.75 337.31 118.52
  Z"
/>
<path fill="#D51313" d="
  M 322.89 122.04
  Q 323.16 121.89 323.42 121.98
  Q 323.80 122.12 323.61 122.47
  Q 323.21 123.19 322.37 122.96
  Q 321.91 122.84 322.18 122.45
  Q 322.30 122.27 322.50 122.25
  Q 322.52 122.25 322.89 122.04
  Z"
/>
<path fill="#D51313" d="
  M 319.52 123.10
  L 320.39 122.98
  Q 320.87 122.91 320.78 123.39
  C 320.63 124.17 319.70 124.21 319.29 123.65
  A 0.35 0.34 68.2 0 1 319.52 123.10
  Z"
/>
<path fill="#D51313" d="
  M 526.66 151.68
  Q 526.17 152.35 525.36 151.47
  Q 524.88 150.94 525.59 151.00
  L 526.37 151.05
  Q 527.08 151.11 526.66 151.68
  Z"
/>
<path fill="#D51313" d="
  M 161.50 188.89
  Q 161.36 188.75 161.34 188.47
  A 0.36 0.35 68.8 0 1 161.48 188.15
  Q 161.90 187.83 162.48 188.09
  Q 163.00 188.32 162.51 188.61
  L 161.95 188.94
  Q 161.70 189.09 161.50 188.89
  Z"
/>
<path fill="#D51313" d="
  M 83.75 231.14
  A 0.16 0.16 0.0 0 1 83.81 230.92
  L 106.87 218.66
  A 17.65 0.74 -28.0 0 1 122.80 211.03
  L 122.80 211.03
  A 17.65 0.74 -28.0 0 1 107.56 219.97
  L 84.51 232.23
  A 0.16 0.16 0.0 0 1 84.29 232.16
  L 83.75 231.14
  Z"
/>
<path fill="#D51313" d="
  M 122.00 215.05
  Q 120.65 215.70 121.72 214.65
  Q 123.79 212.60 126.76 212.13
  Q 128.54 211.85 126.92 212.64
  L 122.00 215.05
  Z"
/>
<path fill="#D51313" d="
  M 163.03 234.06
  A 0.21 0.21 0.0 0 1 162.80 233.71
  Q 164.27 232.50 166.51 231.99
  Q 167.48 231.76 166.60 232.22
  L 163.03 234.06
  Z"
/>
<path fill="#D51313" d="
  M 161.89 234.83
  Q 159.57 235.95 157.14 236.95
  Q 155.71 237.54 156.96 236.63
  Q 159.09 235.08 161.51 234.02
  A 0.45 0.45 0.0 0 1 161.89 234.83
  Z"
/>
<path fill="#D51313" d="
  M 144.47 235.12
  Q 145.03 234.83 145.46 235.11
  A 0.41 0.41 0.0 0 1 145.24 235.86
  L 144.64 235.86
  A 0.39 0.39 0.0 0 1 144.47 235.12
  Z"
/>
<path fill="#D51313" d="
  M 135.25 242.50
  C 135.39 241.92 136.10 241.92 136.54 242.02
  A 0.42 0.42 0.0 0 1 136.53 242.84
  L 135.76 243.01
  Q 135.09 243.16 135.25 242.50
  Z"
/>
<path fill="#D51313" d="
  M 103.50 246.00
  Q 102.00 247.71 99.88 248.56
  Q 99.02 248.90 99.56 248.15
  Q 100.91 246.27 103.50 246.00
  Z"
/>
<path fill="#D51313" d="
  M 127.50 255.00
  Q 128.71 253.32 130.79 252.77
  Q 132.07 252.42 130.81 252.02
  Q 130.67 251.98 130.54 251.93
  Q 130.04 251.75 130.35 251.32
  Q 131.53 249.70 133.45 249.14
  Q 134.53 248.83 133.83 249.71
  Q 132.97 250.80 131.54 251.11
  Q 130.85 251.25 131.27 251.82
  L 131.58 252.24
  Q 131.92 252.70 131.47 253.06
  Q 129.67 254.49 127.50 255.00
  Z"
/>
<path fill="#D51313" d="
  M 104.06 253.31
  Q 103.91 253.68 103.47 253.70
  Q 102.88 253.72 103.23 253.24
  Q 103.87 252.34 104.93 252.00
  Q 105.65 251.77 105.21 252.38
  Q 104.76 253.02 104.06 253.31
  Z"
/>
<path fill="#D51313" d="
  M 127.50 255.00
  Q 126.48 256.75 124.50 257.00
  Q 125.53 255.29 127.50 255.00
  Z"
/>
<path fill="#D51313" d="
  M 124.50 257.00
  Q 122.51 259.35 119.50 260.00
  Q 121.51 257.69 124.50 257.00
  Z"
/>
<path fill="#D51313" d="
  M 132.65 258.68
  Q 132.09 259.34 131.54 258.93
  Q 131.02 258.54 131.55 258.19
  Q 132.09 257.82 132.58 258.14
  Q 132.92 258.36 132.65 258.68
  Z"
/>
<path fill="#D51313" d="
  M 248.15 260.50
  Q 249.14 259.84 250.18 259.43
  Q 252.81 258.39 250.60 260.10
  Q 249.58 260.88 248.33 261.01
  Q 247.22 261.13 248.15 260.50
  Z"
/>
<path fill="#D51313" d="
  M 119.50 260.00
  Q 118.62 261.45 117.09 261.95
  Q 116.39 262.17 116.86 261.61
  Q 117.91 260.37 119.50 260.00
  Z"
/>
<rect fill="#D51313" x="-5.98" y="-0.42" transform="translate(242.10,263.94) rotate(-27.6)" width="11.96" height="0.84" rx="0.41"/>
<path fill="#D51313" d="
  M 113.08 264.03
  A 0.01 0.01 0.0 0 1 113.10 264.04
  L 113.12 264.08
  A 3.00 1.08 -31.8 0 1 111.14 266.58
  L 110.70 266.85
  A 3.00 1.08 -31.8 0 1 107.58 267.51
  L 107.55 267.47
  A 0.01 0.01 0.0 0 1 107.56 267.46
  L 113.08 264.03
  Z"
/>
<path fill="#D51313" d="
  M 85.46 266.89
  Q 85.06 267.15 84.43 266.85
  A 0.44 0.44 0.0 0 1 84.41 266.07
  C 85.16 265.67 86.42 266.64 85.69 266.79
  Q 85.57 266.82 85.46 266.89
  Z"
/>
<ellipse fill="#D51313" cx="0.00" cy="0.00" transform="translate(233.24,268.82) rotate(-28.5)" rx="3.67" ry="0.51"/>
<path fill="#D51313" d="
  M 248.77 276.00
  A 0.18 0.18 0.0 0 1 248.58 275.96
  L 248.40 275.77
  Q 248.05 275.42 248.50 275.22
  L 251.08 274.09
  Q 251.38 273.96 251.58 274.23
  L 251.73 274.43
  Q 251.91 274.68 251.63 274.80
  L 248.77 276.00
  Z"
/>
<path fill="#D51313" d="
  M 263.52 277.81
  A 0.13 0.13 0.0 0 1 263.34 277.76
  L 263.33 277.73
  A 3.24 1.12 -27.0 0 1 265.71 275.26
  L 265.99 275.12
  A 3.24 1.12 -27.0 0 1 269.39 274.64
  L 269.40 274.67
  A 0.13 0.13 0.0 0 1 269.34 274.85
  L 263.52 277.81
  Z"
/>
<path fill="#D51313" d="
  M 113.24 278.13
  Q 112.79 278.78 112.06 279.01
  Q 111.31 279.26 111.78 278.63
  Q 112.59 277.54 113.87 277.10
  Q 114.27 276.97 114.17 277.37
  Q 114.10 277.69 113.75 277.78
  Q 113.43 277.87 113.24 278.13
  Z"
/>
<ellipse fill="#D51313" cx="0.00" cy="0.00" transform="translate(245.00,293.00) rotate(135.0)" rx="0.97" ry="0.48"/>
<path fill="#D51313" d="
  M 87.50 312.00
  L 83.26 315.76
  Q 82.92 316.06 82.52 315.86
  Q 82.36 315.78 82.30 315.66
  Q 82.25 315.57 82.33 315.51
  L 86.37 312.27
  Q 86.71 312.00 87.15 312.00
  L 87.50 312.00
  Z"
/>
</svg>
